<svg width="150" height="150" viewBox="0 0 150 150" fill="none" xmlns="http://www.w3.org/2000/svg">
<g clip-path="url(#clip0_119_5)">
<rect width="150" height="150" rx="75" fill="#2A2D36"/>
<mask id="path-2-outside-1_119_5" maskUnits="userSpaceOnUse" x="-97.3871" y="-77.6774" width="345" height="293" fill="black">
<rect fill="white" x="-97.3871" y="-77.6774" width="345" height="293"/>
<path d="M45.845 65.421C46.1354 65.421 46.2806 65.5524 46.2806 65.8151C46.2806 66.0088 46.1354 66.2646 45.845 66.5827C45.5684 66.9008 45.2089 67.2465 44.7663 67.6199C44.3376 67.9933 43.8536 68.3736 43.3142 68.7608C42.7749 69.148 42.2424 69.5214 41.7169 69.881C41.2052 70.2267 40.735 70.5448 40.3063 70.8352C39.8914 71.1118 39.5733 71.3193 39.3521 71.4576C38.1627 72.2182 37.1532 72.8543 36.3234 73.366C35.5075 73.8639 34.8368 74.2719 34.3112 74.5899C33.7995 74.908 33.4262 75.1569 33.1911 75.3367C32.9698 75.5027 32.8591 75.641 32.8591 75.7516C32.8591 75.8899 33.0458 76.0973 33.4192 76.3739C33.7926 76.6367 34.2905 76.9479 34.9128 77.3074C35.549 77.667 36.275 78.0611 37.091 78.4898C37.9207 78.9186 38.7851 79.3611 39.684 79.8175C40.0159 79.9973 40.4308 80.2185 40.9286 80.4813C41.4265 80.7302 41.9451 81.0068 42.4844 81.3111C43.0376 81.6015 43.5839 81.9057 44.1232 82.2238C44.6764 82.5419 45.1743 82.8461 45.6168 83.1365C46.0594 83.427 46.412 83.6966 46.6748 83.9456C46.9514 84.1945 47.0897 84.395 47.0897 84.5471C47.0897 84.6993 47.0413 84.8237 46.9444 84.9205C46.8615 85.0035 46.7093 85.045 46.4881 85.045C46.1562 85.045 45.6998 84.9413 45.119 84.7338C44.552 84.5264 43.9089 84.2498 43.1897 83.9041C42.4706 83.5583 41.6962 83.1642 40.8664 82.7217C40.0366 82.2791 39.2 81.8227 38.3564 81.3525C37.5128 80.8823 36.6761 80.4191 35.8463 79.9627C35.0165 79.5063 34.2421 79.0914 33.523 78.718C32.9836 78.4414 32.4512 78.1718 31.9257 77.909C31.4001 77.6462 30.923 77.4042 30.4943 77.183C30.0794 76.9479 29.7406 76.7473 29.4778 76.5814C29.2289 76.4016 29.1044 76.2633 29.1044 76.1665C29.1044 76.042 29.2082 75.8968 29.4156 75.7309C29.6369 75.5511 30.031 75.2883 30.598 74.9426C30.8884 74.7766 31.3241 74.5208 31.9049 74.1751C32.4857 73.8293 33.1288 73.449 33.8341 73.0341C34.5394 72.6054 35.2655 72.1698 36.0123 71.7272C36.7729 71.2709 37.4644 70.8422 38.0867 70.4411C39.3037 69.6805 40.3409 68.989 41.1983 68.3667C42.0557 67.7444 42.7749 67.2188 43.3557 66.7901C43.9504 66.3476 44.4413 66.0088 44.8285 65.7737C45.2158 65.5386 45.5546 65.421 45.845 65.421ZM89.3041 48.8464C89.5392 48.8464 89.6567 48.9916 89.6567 49.282C89.6567 49.4618 89.553 49.7591 89.3456 50.174C89.152 50.5751 88.8892 51.0522 88.5573 51.6054C88.2392 52.1586 87.8727 52.7532 87.4578 53.3894C87.0568 54.0255 86.6419 54.6548 86.2132 55.2771C85.7983 55.8994 85.3903 56.4941 84.9893 57.0611C84.6021 57.6143 84.2702 58.0914 83.9936 58.4924C83.5095 59.1839 82.9218 60.0137 82.2303 60.9817C81.5388 61.9498 80.7851 63.0008 79.9692 64.1349C79.1533 65.2689 78.2958 66.4513 77.3969 67.6821C76.498 68.9129 75.5991 70.1438 74.7002 71.3746C73.8151 72.6054 72.9438 73.8017 72.0864 74.9633C71.2428 76.125 70.4614 77.1968 69.7423 78.1787C69.0232 79.1467 68.3939 80.0042 67.8546 80.751C67.3152 81.4977 66.9073 82.0648 66.6307 82.452C66.0913 83.2264 65.5589 83.9663 65.0334 84.6716C64.5217 85.3631 64.0722 85.9992 63.685 86.5801C63.2425 87.2162 62.8622 87.7279 62.5441 88.1151C62.226 88.5024 61.9287 88.696 61.6521 88.696C61.5276 88.696 61.417 88.6614 61.3202 88.5923C61.2372 88.5231 61.1957 88.3917 61.1957 88.1981C61.1957 87.8524 61.4031 87.32 61.818 86.6008C62.2467 85.8817 62.8138 85.0243 63.5191 84.0285C64.3073 82.9222 65.1578 81.7328 66.0706 80.4605C66.9972 79.1744 67.9583 77.7984 68.954 76.3324C69.7285 75.2123 70.5928 73.9884 71.5471 72.6607C72.5013 71.3193 73.497 69.9363 74.5342 68.5119C75.5714 67.0736 76.6225 65.6215 77.6873 64.1556C78.766 62.6759 79.8171 61.2376 80.8405 59.8408C81.8638 58.444 82.8388 57.1095 83.7654 55.8372C84.692 54.5649 85.5217 53.4101 86.2547 52.3729C86.6281 51.8612 86.9669 51.391 87.2711 50.9623C87.5754 50.5198 87.852 50.1464 88.1009 49.8421C88.3498 49.524 88.5711 49.282 88.7647 49.1161C88.9722 48.9363 89.152 48.8464 89.3041 48.8464ZM104.012 64.8194C104.15 64.8194 104.344 64.8747 104.593 64.9854C104.855 65.0822 105.139 65.2136 105.443 65.3795C105.761 65.5316 106.086 65.7045 106.418 65.8981C106.764 66.0779 107.082 66.2577 107.372 66.4375C107.663 66.6034 107.919 66.7555 108.14 66.8938C108.361 67.0321 108.513 67.122 108.596 67.1635C108.928 67.3571 109.322 67.5922 109.779 67.8688C110.235 68.1454 110.712 68.4358 111.21 68.7401C111.722 69.0443 112.24 69.3624 112.766 69.6943C113.291 70.0124 113.796 70.3166 114.28 70.6071C114.764 70.8975 115.214 71.1671 115.628 71.4161C116.043 71.665 116.389 71.8655 116.666 72.0177C117.578 72.5432 118.346 72.9926 118.968 73.366C119.591 73.7256 120.095 74.0368 120.483 74.2995C120.87 74.5623 121.146 74.7835 121.312 74.9633C121.478 75.1431 121.561 75.3022 121.561 75.4404C121.561 75.6617 121.43 75.9314 121.167 76.2495C120.904 76.5537 120.572 76.8787 120.171 77.2244C119.784 77.5702 119.355 77.9159 118.885 78.2617C118.415 78.6074 117.973 78.9324 117.558 79.2366C117.433 79.3196 117.205 79.4786 116.873 79.7137C116.555 79.935 116.182 80.1978 115.753 80.502C115.324 80.7924 114.854 81.1105 114.342 81.4563C113.844 81.7882 113.354 82.1201 112.869 82.452C112.385 82.7839 111.929 83.0951 111.5 83.3855C111.072 83.6759 110.712 83.9179 110.422 84.1115C109.633 84.6232 108.949 85.0588 108.368 85.4184C107.787 85.7641 107.365 85.937 107.103 85.937C106.826 85.937 106.688 85.7987 106.688 85.5221C106.688 85.37 106.743 85.2179 106.854 85.0657C106.978 84.8998 107.22 84.6716 107.58 84.3812C107.718 84.2567 107.96 84.0631 108.306 83.8004C108.665 83.5376 109.073 83.2472 109.53 82.9291C110 82.5972 110.491 82.2445 111.002 81.8711C111.514 81.4977 112.005 81.152 112.475 80.8339C112.959 80.502 113.388 80.2047 113.761 79.9419C114.135 79.6792 114.411 79.4856 114.591 79.3611C115.2 78.9324 115.76 78.5244 116.272 78.1372C116.797 77.7361 117.246 77.3697 117.62 77.0377C117.993 76.7058 118.284 76.4223 118.491 76.1872C118.712 75.9521 118.823 75.7793 118.823 75.6686C118.823 75.5857 118.754 75.4819 118.616 75.3575C118.477 75.233 118.298 75.0947 118.076 74.9426C117.869 74.7905 117.641 74.6383 117.392 74.4862C117.143 74.3341 116.915 74.1889 116.707 74.0506C116.444 73.8846 116.085 73.6634 115.628 73.3868C115.186 73.0964 114.688 72.7783 114.135 72.4325C113.596 72.0868 113.029 71.7272 112.434 71.3538C111.839 70.9804 111.272 70.6278 110.733 70.2959C110.207 69.9502 109.723 69.639 109.281 69.3624C108.852 69.072 108.527 68.8507 108.306 68.6986C107.96 68.4635 107.524 68.18 106.999 67.8481C106.487 67.5023 105.982 67.1566 105.485 66.8109C105.001 66.4513 104.579 66.1194 104.219 65.8151C103.873 65.4971 103.701 65.2551 103.701 65.0891C103.701 65.0061 103.728 64.9439 103.784 64.9024C103.853 64.8471 103.929 64.8194 104.012 64.8194Z"/>
</mask>
<path d="M45.845 66.5827L-47.0612 -18.2448L-48.089 -17.1191L-49.0892 -15.9688L45.845 66.5827ZM44.7663 67.6199L-36.3626 -28.5329L-37.1168 -27.8966L-37.8609 -27.2484L44.7663 67.6199ZM41.7169 69.881L112.151 174.123L112.455 173.917L112.758 173.71L41.7169 69.881ZM40.3063 70.8352L110.091 175.513L110.479 175.254L110.865 174.993L40.3063 70.8352ZM39.3521 71.4576L-27.3252 -35.2261L-27.8791 -34.8799L-28.4294 -34.528L39.3521 71.4576ZM36.3234 73.366L101.852 180.759L102.105 180.605L102.358 180.449L36.3234 73.366ZM34.3112 74.5899L-30.8317 -33.0375L-31.4713 -32.6504L-32.1063 -32.2556L34.3112 74.5899ZM33.1911 75.3367L108.675 175.982L109.145 175.629L109.612 175.272L33.1911 75.3367ZM33.4192 76.3739L-41.4642 177.467L-40.2338 178.378L-38.9815 179.259L33.4192 76.3739ZM34.9128 77.3074L-28.0253 186.239L-27.5096 186.537L-26.9912 186.83L34.9128 77.3074ZM37.091 78.4898L-21.4251 189.859L-21.0416 190.061L-20.6567 190.26L37.091 78.4898ZM39.684 79.8175L99.6035 -30.8031L98.1299 -31.6013L96.6356 -32.36L39.684 79.8175ZM40.9286 80.4813L-17.7926 191.743L-16.5701 192.388L-15.3337 193.006L40.9286 80.4813ZM42.4844 81.3111L-19.3269 190.886L-17.6745 191.818L-15.9947 192.7L42.4844 81.3111ZM44.1232 82.2238L-19.7846 190.589L-19.188 190.941L-18.5876 191.286L44.1232 82.2238ZM46.6748 83.9456L-39.8479 175.275L-38.6806 176.381L-37.4853 177.457L46.6748 83.9456ZM46.9444 84.9205L135.903 173.879L46.9444 84.9205ZM45.119 84.7338L1.89419 202.882L2.34929 203.048L2.80567 203.211L45.119 84.7338ZM40.8664 82.7217L100.069 -28.284L40.8664 82.7217ZM33.523 78.718L91.4965 -32.9347L91.2139 -33.0814L90.9305 -33.2267L33.523 78.718ZM31.9257 77.909L88.188 -34.6157L31.9257 77.909ZM30.4943 77.183L-31.5299 186.637L-29.3908 187.85L-27.2059 188.977L30.4943 77.183ZM29.4778 76.5814L-44.1806 178.57L-41.0094 180.86L-37.7019 182.949L29.4778 76.5814ZM29.4156 75.7309L108.006 173.969L108.378 173.672L108.748 173.371L29.4156 75.7309ZM30.598 74.9426L-31.8194 -34.288L-33.3715 -33.4011L-34.8977 -32.4705L30.598 74.9426ZM33.8341 73.0341L97.6205 181.471L98.4036 181.01L99.1799 180.538L33.8341 73.0341ZM36.0123 71.7272L100.149 179.957L100.444 179.782L100.739 179.605L36.0123 71.7272ZM38.0867 70.4411L-28.5906 -36.2426L-29.33 -35.7805L-30.0628 -35.3082L38.0867 70.4411ZM43.3557 66.7901L118.066 168.011L118.265 167.864L118.464 167.716L43.3557 66.7901ZM45.845 65.421V191.227C29.5367 191.227 -6.18049 187.81 -38.2335 158.81C-72.6776 127.646 -79.5258 88.5051 -79.5258 65.8151H46.2806H172.087C172.087 42.8624 165.166 3.52468 130.577 -27.7704C98.3787 -56.9022 62.4437 -60.3854 45.845 -60.3854V65.421ZM46.2806 65.8151H-79.5258C-79.5258 35.6848 -68.7796 13.8131 -63.2404 4.05348C-57.0801 -6.80034 -50.6147 -14.3528 -47.0612 -18.2448L45.845 66.5827L138.751 151.41C142.595 147.2 149.278 139.361 155.584 128.251C161.268 118.236 172.087 96.1391 172.087 65.8151H46.2806ZM45.845 66.5827L-49.0892 -15.9688C-43.8838 -21.9551 -39.178 -26.1574 -36.3626 -28.5329L44.7663 67.6199L125.895 163.773C129.596 160.65 135.021 155.757 140.779 149.134L45.845 66.5827ZM44.7663 67.6199L-37.8609 -27.2484C-34.8779 -29.8465 -32.2006 -31.8957 -30.057 -33.4347L43.3142 68.7608L116.685 170.956C119.908 168.643 123.553 165.833 127.394 162.488L44.7663 67.6199ZM43.3142 68.7608L-30.057 -33.4347C-29.8583 -33.5774 -29.6138 -33.7497 -29.324 -33.948L41.7169 69.881L112.758 173.71C114.099 172.793 115.408 171.873 116.685 170.956L43.3142 68.7608ZM41.7169 69.881L-28.7168 -34.3608C-29.2624 -33.9922 -29.7748 -33.6456 -30.252 -33.3223L40.3063 70.8352L110.865 174.993C111.245 174.735 111.673 174.446 112.151 174.123L41.7169 69.881ZM40.3063 70.8352L-29.4786 -33.8421C-29.4354 -33.8708 -29.2527 -33.9925 -28.9674 -34.1786C-28.7232 -34.3378 -28.132 -34.7218 -27.3252 -35.2261L39.3521 71.4576L106.029 178.141C107.848 177.004 109.393 175.978 110.091 175.513L40.3063 70.8352ZM39.3521 71.4576L-28.4294 -34.528C-28.8288 -34.2726 -29.1382 -34.0763 -29.3671 -33.932C-29.4799 -33.8609 -29.5655 -33.8074 -29.6257 -33.7698C-29.6863 -33.7319 -29.7138 -33.715 -29.711 -33.7168L36.3234 73.366L102.358 180.449C103.968 179.456 105.596 178.426 107.134 177.443L39.3521 71.4576ZM36.3234 73.366L-29.2047 -34.0273C-29.9543 -33.5699 -30.4845 -33.2476 -30.8317 -33.0375L34.3112 74.5899L99.4542 182.217C100.158 181.791 100.969 181.298 101.852 180.759L36.3234 73.366ZM34.3112 74.5899L-32.1063 -32.2556C-33.3066 -31.5095 -37.9477 -28.6381 -43.2301 -24.5986L33.1911 75.3367L109.612 175.272C106.773 177.443 104.484 178.991 103.432 179.692C102.207 180.509 101.251 181.111 100.729 181.436L34.3112 74.5899ZM33.1911 75.3367L-42.2928 -25.3084C-46.7107 -21.9951 -55.9988 -14.6475 -65.2962 -3.02575C-73.1942 6.84671 -92.9473 34.4276 -92.9473 75.7516H32.8591H158.666C158.666 116.965 138.968 144.421 131.18 154.156C121.994 165.639 112.871 172.834 108.675 175.982L33.1911 75.3367ZM32.8591 75.7516H-92.9473C-92.9473 126.09 -63.3759 156.989 -60.512 160.171C-52.3152 169.279 -44.5887 175.152 -41.4642 177.467L33.4192 76.3739L108.303 -24.7187C111.054 -22.6809 118.5 -17.0493 126.51 -8.14917C130.592 -3.61425 137.353 4.53885 143.592 16.0915C149.565 27.1525 158.666 47.9837 158.666 75.7516H32.8591ZM33.4192 76.3739L-38.9815 179.259C-34.3299 182.533 -30.2801 184.936 -28.0253 186.239L34.9128 77.3074L97.851 -31.624C98.5323 -31.2303 99.5294 -30.6421 100.75 -29.8793C101.927 -29.1438 103.694 -28.0072 105.82 -26.5114L33.4192 76.3739ZM34.9128 77.3074L-26.9912 186.83C-24.9913 187.96 -23.1013 188.978 -21.4251 189.859L37.091 78.4898L95.6071 -32.8795C95.6513 -32.8562 96.0893 -32.6262 96.8168 -32.215L34.9128 77.3074ZM37.091 78.4898L-20.6567 190.26C-19.5422 190.835 -18.4117 191.414 -17.2676 191.995L39.684 79.8175L96.6356 -32.36C95.9818 -32.6919 95.3837 -32.9983 94.8386 -33.2799L37.091 78.4898ZM39.684 79.8175L-20.2355 190.438C-19.3637 190.91 -18.5174 191.36 -17.7926 191.743L40.9286 80.4813L99.6499 -30.78C99.5922 -30.8105 99.5463 -30.8348 99.5114 -30.8532C99.4765 -30.8718 99.4554 -30.883 99.4471 -30.8874C99.4386 -30.892 99.4471 -30.8875 99.4709 -30.8747C99.4942 -30.8621 99.5393 -30.8379 99.6035 -30.8031L39.684 79.8175ZM40.9286 80.4813L-15.3337 193.006C-16.9042 192.221 -18.2411 191.498 -19.3269 190.886L42.4844 81.3111L104.296 -28.2637C102.131 -29.4847 99.7572 -30.7603 97.191 -32.0434L40.9286 80.4813ZM42.4844 81.3111L-15.9947 192.7C-17.2797 192.025 -18.5434 191.321 -19.7846 190.589L44.1232 82.2238L108.031 -26.1416C105.711 -27.5097 103.355 -28.8222 100.964 -30.0777L42.4844 81.3111ZM44.1232 82.2238L-18.5876 191.286C-19.7586 190.613 -21.417 189.623 -23.4077 188.317L45.6168 83.1365L114.641 -22.0437C111.766 -23.9309 109.111 -25.5292 106.834 -26.8386L44.1232 82.2238ZM45.6168 83.1365L-23.4077 188.317C-26.6216 186.208 -32.8476 181.907 -39.8479 175.275L46.6748 83.9456L133.197 -7.38397C125.672 -14.5137 118.74 -19.3537 114.641 -22.0437L45.6168 83.1365ZM46.6748 83.9456L-37.4853 177.457C-41.2526 174.066 -48.9571 166.76 -56.5795 155.707C-63.0076 146.386 -78.7168 121.14 -78.7168 84.5471H47.0897H172.896C172.896 47.8017 157.118 22.3795 150.551 12.8582C142.791 1.60512 134.879 -5.92618 130.835 -9.56563L46.6748 83.9456ZM47.0897 84.5471H-78.7168C-78.7168 55.3967 -68.2365 22.1843 -42.0141 -4.03805L46.9444 84.9205L135.903 173.879C162.319 147.463 172.896 114.002 172.896 84.5471H47.0897ZM46.9444 84.9205L-42.0141 -4.03805C-22.1486 -23.9036 -0.386194 -32.5271 13.6663 -36.3596C27.7387 -40.1976 39.5381 -40.7614 46.4881 -40.7614V85.045V210.851C53.6788 210.851 98.5108 211.271 135.903 173.879L46.9444 84.9205ZM46.4881 85.045V-40.7614C58.6513 -40.7614 68.2674 -38.9632 73.7782 -37.7108C79.6926 -36.3666 84.3878 -34.8307 87.4322 -33.7434L45.119 84.7338L2.80567 203.211C7.38994 204.848 24.2201 210.851 46.4881 210.851V85.045ZM45.119 84.7338L88.3437 -33.4139C92.6052 -31.8548 95.8304 -30.3786 97.701 -29.4793L43.1897 83.9041L-11.3215 197.287C-8.01259 198.878 -3.50131 200.908 1.89419 202.882L45.119 84.7338ZM43.1897 83.9041L97.701 -29.4793C98.8107 -28.9458 99.6161 -28.5258 100.069 -28.284L40.8664 82.7217L-18.3366 193.727C-16.2238 194.854 -13.8695 196.062 -11.3215 197.287L43.1897 83.9041ZM40.8664 82.7217L100.069 -28.284C99.9435 -28.3512 99.7892 -28.435 99.6063 -28.537L38.3564 81.3525L-22.8936 191.242C-21.3893 192.081 -19.8703 192.909 -18.3366 193.727L40.8664 82.7217ZM38.3564 81.3525L99.6063 -28.537C98.5599 -29.1202 97.5161 -29.6982 96.4748 -30.2709L35.8463 79.9627L-24.7822 190.196C-24.1639 190.536 -23.5344 190.885 -22.8936 191.242L38.3564 81.3525ZM35.8463 79.9627L96.4748 -30.2709C94.9079 -31.1327 93.2394 -32.0297 91.4965 -32.9347L33.523 78.718L-24.4506 190.371C-24.609 190.289 -24.7152 190.232 -24.7654 190.205C-24.816 190.178 -24.8226 190.174 -24.7822 190.196L35.8463 79.9627ZM33.523 78.718L90.9305 -33.2267C90.0224 -33.6925 89.1081 -34.1557 88.188 -34.6157L31.9257 77.909L-24.3367 190.434C-24.2057 190.499 -24.0552 190.575 -23.8846 190.663L33.523 78.718ZM31.9257 77.909L88.188 -34.6157C88.1552 -34.6321 88.1302 -34.6447 88.1127 -34.6535C88.0952 -34.6623 88.0863 -34.6668 88.0855 -34.6672C88.0847 -34.6676 88.0934 -34.6632 88.111 -34.6542C88.1285 -34.6452 88.1566 -34.6309 88.1945 -34.6113L30.4943 77.183L-27.2059 188.977C-26.2102 189.491 -25.244 189.98 -24.3367 190.434L31.9257 77.909ZM30.4943 77.183L92.5185 -32.2714C92.861 -32.0773 93.3704 -31.7854 94.0049 -31.4099C94.619 -31.0464 95.5363 -30.4948 96.6576 -29.7866L29.4778 76.5814L-37.7019 182.949C-35.1062 184.589 -32.8747 185.875 -31.5299 186.637L30.4943 77.183ZM29.4778 76.5814L103.136 -25.4073C106.226 -23.1759 114.214 -17.2559 122.709 -7.81726C127.07 -2.97218 134.009 5.47379 140.314 17.3836C146.489 29.0472 154.911 49.4457 154.911 76.1665H29.1044H-96.702C-96.702 125.496 -68.4487 155.908 -64.3134 160.503C-55.6941 170.08 -47.5193 176.159 -44.1806 178.57L29.4778 76.5814ZM29.1044 76.1665H154.911C154.911 111.474 140.387 136.724 131.555 149.088C122.455 161.827 112.992 169.98 108.006 173.969L29.4156 75.7309L-49.1751 -22.5075C-54.3685 -18.3527 -63.9872 -10.0441 -73.1907 2.84072C-82.1258 15.3499 -96.702 40.7341 -96.702 76.1665H29.1044ZM29.4156 75.7309L108.748 173.371C106.383 175.293 104.383 176.771 103.063 177.72C101.68 178.714 100.51 179.511 99.662 180.076C98.0151 181.174 96.733 181.966 96.0938 182.356L30.598 74.9426L-34.8977 -32.4705C-35.6535 -32.0096 -42.4954 -27.9394 -49.917 -21.9093L29.4156 75.7309ZM30.598 74.9426L93.0155 184.173C94.3161 183.43 95.5377 182.705 96.2529 182.28L31.9049 74.1751L-32.4431 -33.9295C-32.5873 -33.8437 -32.6204 -33.8244 -32.5686 -33.8549C-32.5393 -33.872 -32.4649 -33.9157 -32.3538 -33.9802C-32.2473 -34.0421 -32.0628 -34.149 -31.8194 -34.288L30.598 74.9426ZM31.9049 74.1751L96.2529 182.28C96.6129 182.065 97.0653 181.798 97.6205 181.471L33.8341 73.0341L-29.9523 -35.4028C-30.8076 -34.8996 -31.6414 -34.4067 -32.4431 -33.9295L31.9049 74.1751ZM33.8341 73.0341L99.1799 180.538C99.4635 180.366 99.7857 180.173 100.149 179.957L36.0123 71.7272L-28.1242 -36.503C-29.2548 -35.833 -30.3846 -35.1553 -31.5117 -34.4703L33.8341 73.0341ZM36.0123 71.7272L100.739 179.605C102.435 178.588 104.29 177.445 106.236 176.19L38.0867 70.4411L-30.0628 -35.3082C-29.3613 -35.7603 -28.8891 -36.0462 -28.7146 -36.1509L36.0123 71.7272ZM38.0867 70.4411L104.764 177.125C107.645 175.324 111.234 172.985 115.096 170.182L41.1983 68.3667L-32.6998 -33.4485C-31.566 -34.2714 -30.6441 -34.9009 -30.0075 -35.3253C-29.3609 -35.7563 -28.8755 -36.0645 -28.5906 -36.2426L38.0867 70.4411ZM41.1983 68.3667L115.096 170.182C116.113 169.444 117.123 168.707 118.066 168.011L43.3557 66.7901L-31.3547 -34.4305C-31.573 -34.2694 -32.0013 -33.9555 -32.6998 -33.4485L41.1983 68.3667ZM43.3557 66.7901L118.464 167.716C117.834 168.185 116.867 168.891 115.628 169.746C114.447 170.562 112.554 171.833 110.119 173.311L44.8285 65.7737L-20.4623 -41.7641C-25.6583 -38.6094 -29.7066 -35.6582 -31.7521 -34.136L43.3557 66.7901ZM44.8285 65.7737L110.119 173.311C100.913 178.901 78.0567 191.227 45.845 191.227V65.421V-60.3854C13.0525 -60.3854 -10.481 -47.8242 -20.4623 -41.7641L44.8285 65.7737ZM89.3456 50.174L-23.1791 -6.08833L-23.5698 -5.30694L-23.9496 -4.52021L89.3456 50.174ZM88.5573 51.6054L-19.3209 -13.1215L-19.9224 -12.119L-20.5051 -11.1055L88.5573 51.6054ZM87.4578 53.3894L-17.919 -15.3346L-18.4483 -14.523L-18.9651 -13.7033L87.4578 53.3894ZM86.2132 55.2771L-17.3894 -16.0936L-17.9328 -15.3048L-18.4641 -14.5078L86.2132 55.2771ZM84.9893 57.0611L-17.7211 -15.5877L-17.8988 -15.3364L-18.0754 -15.0842L84.9893 57.0611ZM83.9936 58.4924L187.058 130.638L187.31 130.278L187.559 129.917L83.9936 58.4924ZM82.2303 60.9817L184.603 134.105L82.2303 60.9817ZM77.3969 67.6821L-24.199 -6.51715L77.3969 67.6821ZM74.7002 71.3746L-26.8958 -2.82468L-27.1691 -2.45046L-27.4396 -2.07424L74.7002 71.3746ZM72.0864 74.9633L-29.1342 0.252881L-29.4237 0.645131L-29.7102 1.03961L72.0864 74.9633ZM69.7423 78.1787L170.733 153.2L170.987 152.858L171.239 152.514L69.7423 78.1787ZM66.6307 82.452L-35.7422 9.32847L-36.1782 9.93885L-36.6069 10.5544L66.6307 82.452ZM65.0334 84.6716L-35.8487 9.50461L-35.9722 9.67036L-36.0951 9.83652L65.0334 84.6716ZM63.685 86.5801L166.96 158.424L167.671 157.401L168.362 156.365L63.685 86.5801ZM61.3202 88.5923L-19.2192 185.239L-15.6179 188.24L-11.8033 190.965L61.3202 88.5923ZM61.818 86.6008L-46.243 22.1798L-46.7039 22.9529L-47.1537 23.7325L61.818 86.6008ZM63.5191 84.0285L-38.9403 11.0262L-39.0414 11.1681L-39.1421 11.3102L63.5191 84.0285ZM66.0706 80.4605L-36.0048 6.92233L-36.0785 7.02457L-36.152 7.12697L66.0706 80.4605ZM68.954 76.3324L-34.529 4.78861L-34.8239 5.21506L-35.1152 5.64394L68.954 76.3324ZM71.5471 72.6607L173.704 146.086L173.884 145.835L174.063 145.584L71.5471 72.6607ZM74.5342 68.5119L176.236 142.566L176.406 142.333L176.575 142.099L74.5342 68.5119ZM77.6873 64.1556L-23.9746 -9.95312L-24.0366 -9.86815L-24.0984 -9.78308L77.6873 64.1556ZM83.7654 55.8372L-17.931 -18.2243L83.7654 55.8372ZM86.2547 52.3729L-15.3706 -21.7861L-15.9348 -21.013L-16.4872 -20.2313L86.2547 52.3729ZM87.2711 50.9623L189.867 123.772L190.41 123.008L190.941 122.235L87.2711 50.9623ZM88.1009 49.8421L185.47 129.508L186.333 128.452L187.174 127.378L88.1009 49.8421ZM88.7647 49.1161L170.638 144.635L170.899 144.412L171.159 144.187L88.7647 49.1161ZM89.3041 48.8464V174.653C62.1673 174.653 21.6229 164.97 -8.21385 128.113C-33.9354 96.3388 -36.1497 62.8414 -36.1497 49.282H89.6567H215.463C215.463 35.4322 213.19 1.717 187.351 -30.2019C157.397 -67.2042 116.676 -76.96 89.3041 -76.96V48.8464ZM89.6567 49.282H-36.1497C-36.1497 37.7994 -34.5648 28.5422 -33.2978 22.7139C-31.9697 16.6047 -30.4079 11.6438 -29.2075 8.20272C-26.877 1.52174 -24.4674 -3.51178 -23.1791 -6.08833L89.3456 50.174L201.87 106.436C203.366 103.445 205.931 98.0553 208.365 91.077C210.12 86.0464 215.463 70.2711 215.463 49.282H89.6567ZM89.3456 50.174L-23.9496 -4.52021C-21.9391 -8.68498 -20.1617 -11.7201 -19.3209 -13.1215L88.5573 51.6054L196.435 116.332C197.94 113.825 200.243 109.835 202.641 104.868L89.3456 50.174ZM88.5573 51.6054L-20.5051 -11.1055C-19.4562 -12.9297 -18.5556 -14.3584 -17.919 -15.3346L87.4578 53.3894L192.835 122.113C194.301 119.865 195.935 117.247 197.62 114.316L88.5573 51.6054ZM87.4578 53.3894L-18.9651 -13.7033C-18.4507 -14.5192 -17.925 -15.3161 -17.3894 -16.0936L86.2132 55.2771L189.816 126.648C191.209 124.626 192.564 122.57 193.881 120.482L87.4578 53.3894ZM86.2132 55.2771L-18.4641 -14.5078C-18.285 -14.7764 -18.0374 -15.1404 -17.7211 -15.5877L84.9893 57.0611L187.7 129.71C188.818 128.129 189.882 126.575 190.89 125.062L86.2132 55.2771ZM84.9893 57.0611L-18.0754 -15.0842C-18.5717 -14.3751 -19.0798 -13.6455 -19.5719 -12.932L83.9936 58.4924L187.559 129.917C187.62 129.828 187.776 129.604 188.054 129.206L84.9893 57.0611ZM83.9936 58.4924L-19.0711 -13.6528C-19.2549 -13.3903 -19.5977 -12.9047 -20.1426 -12.1418L82.2303 60.9817L184.603 134.105C185.441 132.932 186.274 131.758 187.058 130.638L83.9936 58.4924ZM82.2303 60.9817L-20.1426 -12.1418C-20.737 -11.3096 -21.4052 -10.3777 -22.1507 -9.34163L79.9692 64.1349L182.089 137.611C182.975 136.379 183.815 135.209 184.603 134.105L82.2303 60.9817ZM79.9692 64.1349L-22.1507 -9.34163C-22.778 -8.46971 -23.46 -7.52903 -24.199 -6.51715L77.3969 67.6821L178.993 141.881C180.052 140.432 181.085 139.007 182.089 137.611L79.9692 64.1349ZM77.3969 67.6821L-24.199 -6.51715C-28.6172 -0.4676 -20.1179 -12.1051 -24.5361 -6.05559C-28.9543 -0.0060419 -20.455 -11.6436 -24.8732 -5.59403C-26.3522 -3.56898 -23.4785 -7.50369 -24.9575 -5.47864C-26.4364 -3.45359 -23.5628 -7.3883 -25.0417 -5.36325C-26.5207 -3.3382 -23.647 -7.27291 -25.126 -5.24786C-26.605 -3.22282 -23.7313 -7.15752 -25.2103 -5.13247C-26.6893 -3.10743 -23.8156 -7.04213 -25.2946 -5.01708C-26.7735 -2.99204 -23.8999 -6.92674 -25.3788 -4.90169C-26.8578 -2.87665 -23.9841 -6.81135 -25.4631 -4.7863C-26.9421 -2.76126 -24.0684 -6.69596 -25.5474 -4.67092C-28.889 -0.0955101 -23.5542 -7.40009 -26.8958 -2.82468L74.7002 71.3746L176.296 145.574C177.775 143.549 174.901 147.484 176.38 145.458C177.859 143.433 174.986 147.368 176.465 145.343C177.944 143.318 175.07 147.253 176.549 145.228C178.028 143.203 175.154 147.137 176.633 145.112C178.112 143.087 175.238 147.022 176.717 144.997C178.196 142.972 175.323 146.907 176.802 144.882C178.281 142.856 175.407 146.791 176.886 144.766C178.365 142.741 175.491 146.676 176.97 144.651C178.449 142.626 175.576 146.56 177.055 144.535C178.534 142.51 175.66 146.445 177.139 144.42C178.618 142.395 175.744 146.33 177.223 144.305C178.702 142.28 175.828 146.214 177.307 144.189C178.786 142.164 175.913 146.099 177.392 144.074C178.871 142.049 175.997 145.983 177.476 143.958C178.955 141.933 176.081 145.868 177.56 143.843C179.039 141.818 176.165 145.753 177.644 143.728C180.986 139.152 175.651 146.457 178.993 141.881L77.3969 67.6821ZM74.7002 71.3746L-27.4396 -2.07424C-28.0359 -1.245 -28.6007 -0.469988 -29.1342 0.252881L72.0864 74.9633L173.307 149.674C174.488 148.073 175.666 146.456 176.84 144.823L74.7002 71.3746ZM72.0864 74.9633L-29.7102 1.03961C-30.4711 2.08745 -31.1511 3.02008 -31.7541 3.8433L69.7423 78.1787L171.239 152.514C172.074 151.373 172.957 150.163 173.883 148.887L72.0864 74.9633ZM69.7423 78.1787L-31.248 3.15727C-32.2071 4.44826 -33.1826 5.77509 -34.1341 7.09247L67.8546 80.751L169.843 154.409C169.971 154.233 170.253 153.845 170.733 153.2L69.7423 78.1787ZM67.8546 80.751L-34.1341 7.09247C-34.707 7.88569 -35.2696 8.66684 -35.7422 9.32847L66.6307 82.452L169.004 155.575C169.084 155.463 169.337 155.11 169.843 154.409L67.8546 80.751ZM66.6307 82.452L-36.6069 10.5544C-36.4336 10.3055 -36.1812 9.95099 -35.8487 9.50461L65.0334 84.6716L165.915 159.839C167.299 157.982 168.616 156.147 169.868 154.35L66.6307 82.452ZM65.0334 84.6716L-36.0951 9.83652C-37.5628 11.8199 -39.2383 14.1643 -40.9923 16.7952L63.685 86.5801L168.362 156.365C167.383 157.834 166.606 158.906 166.162 159.507L65.0334 84.6716ZM63.685 86.5801L-39.5902 14.7365C-39.2136 14.1952 -38.6434 13.3895 -37.9038 12.3944C-37.1888 11.4324 -36.0931 9.99348 -34.6699 8.26083L62.5441 88.1151L159.758 167.969C163.018 164.001 165.515 160.501 166.96 158.424L63.685 86.5801ZM62.5441 88.1151L-34.6699 8.26083C-29.7501 2.27149 -20.6166 -7.726 -6.56668 -16.8748C7.98685 -26.3515 31.3829 -37.1105 61.6521 -37.1105V88.696V214.502C121.059 214.502 153.755 175.277 159.758 167.969L62.5441 88.1151ZM61.6521 88.696V-37.1105C86.4589 -37.1105 112.178 -29.685 134.444 -13.7807L61.3202 88.5923L-11.8033 190.965C10.6563 207.008 36.5963 214.502 61.6521 214.502V88.696ZM61.3202 88.5923L141.859 -8.05493C164.787 11.051 175.945 33.9364 181.194 50.5576C186.258 66.5957 187.002 80.2205 187.002 88.1981H61.1957H-64.6107C-64.6107 97.8734 -64.086 147.85 -19.2192 185.239L61.3202 88.5923ZM61.1957 88.1981H187.002C187.002 100.281 185.246 110.159 183.671 116.826C182.052 123.68 180.117 129.252 178.575 133.211C175.589 140.875 172.475 146.548 170.79 149.469L61.818 86.6008L-47.1537 23.7325C-49.254 27.3731 -52.679 33.6718 -55.8723 41.868C-58.4342 48.4434 -64.6107 65.4859 -64.6107 88.1981H61.1957ZM61.818 86.6008L169.879 151.022C168.896 152.67 168.066 153.959 167.502 154.812C166.923 155.687 166.465 156.344 166.18 156.747L63.5191 84.0285L-39.1421 11.3102C-40.9781 13.9023 -43.5525 17.6666 -46.243 22.1798L61.818 86.6008ZM63.5191 84.0285L165.978 157.031C166.677 156.05 167.448 154.972 168.293 153.794L66.0706 80.4605L-36.152 7.12697C-37.1322 8.49337 -38.0625 9.7942 -38.9403 11.0262L63.5191 84.0285ZM66.0706 80.4605L168.146 153.999C169.824 151.67 171.451 149.336 173.023 147.021L68.954 76.3324L-35.1152 5.64394C-35.534 6.26062 -35.8293 6.67872 -36.0048 6.92233L66.0706 80.4605ZM68.954 76.3324L172.437 147.876C172.699 147.497 173.112 146.909 173.704 146.086L71.5471 72.6607L-30.6097 -0.764454C-31.9264 1.06747 -33.2423 2.92746 -34.529 4.78861L68.954 76.3324ZM71.5471 72.6607L174.063 145.584C174.73 144.647 175.453 143.641 176.236 142.566L74.5342 68.5119L-27.1673 -5.5426C-28.459 -3.76861 -29.727 -2.00797 -30.9685 -0.262702L71.5471 72.6607ZM74.5342 68.5119L176.575 142.099C177.525 140.78 178.491 139.446 179.473 138.094L77.6873 64.1556L-24.0984 -9.78308C-25.2465 -8.20255 -26.3825 -6.63315 -27.5062 -5.07493L74.5342 68.5119ZM77.6873 64.1556L179.349 138.264C180.372 136.862 181.363 135.505 182.323 134.195L80.8405 59.8408L-20.6424 -14.513C-21.7289 -13.0301 -22.8397 -11.51 -23.9746 -9.95312L77.6873 64.1556ZM80.8405 59.8408L182.323 134.195C183.411 132.71 184.458 131.278 185.462 129.899L83.7654 55.8372L-17.931 -18.2243C-18.7799 -17.0586 -19.6834 -15.8219 -20.6424 -14.513L80.8405 59.8408ZM83.7654 55.8372L185.462 129.899C186.661 128.252 187.849 126.601 188.997 124.977L86.2547 52.3729L-16.4872 -20.2313C-16.8053 -19.7811 -17.2771 -19.1222 -17.931 -18.2243L83.7654 55.8372ZM86.2547 52.3729L187.88 126.532C188.516 125.66 189.186 124.733 189.867 123.772L87.2711 50.9623L-15.3249 -21.8478C-15.2852 -21.9038 -15.2688 -21.9264 -15.2789 -21.9123C-15.2887 -21.8988 -15.3186 -21.8574 -15.3706 -21.7861L86.2547 52.3729ZM87.2711 50.9623L190.941 122.235C189.924 123.714 188.071 126.329 185.47 129.508L88.1009 49.8421L-9.26791 -29.8233C-12.3666 -26.036 -14.7736 -22.6743 -16.3986 -20.3107L87.2711 50.9623ZM88.1009 49.8421L187.174 127.378C185.751 129.196 183.787 131.595 181.302 134.312C178.89 136.951 175.322 140.621 170.638 144.635L88.7647 49.1161L6.89098 -46.4033C-2.16519 -38.6409 -8.19495 -31.2423 -10.9723 -27.6934L88.1009 49.8421ZM88.7647 49.1161L171.159 144.187C165.994 148.664 157.348 155.423 145.318 161.439C133.321 167.437 113.998 174.653 89.3041 174.653V48.8464V-76.96C42.5592 -76.96 12.9968 -51.6975 6.37024 -45.9545L88.7647 49.1161ZM104.593 64.9854L53.4977 179.949L57.2488 181.616L61.1006 183.035L104.593 64.9854ZM105.443 65.3795L45.2004 175.824L48.1412 177.429L51.1632 178.874L105.443 65.3795ZM106.418 65.8981L43.0278 174.567L45.6665 176.106L48.3769 177.516L106.418 65.8981ZM107.372 66.4375L41.1535 173.406L43.0342 174.571L44.9548 175.668L107.372 66.4375ZM108.596 67.1635L171.986 -41.5054L168.485 -43.5482L164.859 -45.3612L108.596 67.1635ZM111.21 68.7401L45.6082 176.088L46.2584 176.486L46.9134 176.875L111.21 68.7401ZM112.766 69.6943L45.586 176.062L46.5984 176.702L47.6228 177.322L112.766 69.6943ZM116.666 72.0177L179.439 -37.009L178.372 -37.623L177.294 -38.216L116.666 72.0177ZM118.968 73.366L54.2414 181.244L55.1314 181.778L56.0301 182.297L118.968 73.366ZM121.167 76.2495L216.38 158.479L217.281 157.436L218.159 156.373L121.167 76.2495ZM120.171 77.2244L38.0274 -18.0626L37.1986 -17.3481L36.3823 -16.6193L120.171 77.2244ZM117.558 79.2366L187.343 183.914L189.685 182.352L191.955 180.688L117.558 79.2366ZM116.873 79.7137L188.717 182.989L189.155 182.684L189.591 182.375L116.873 79.7137ZM115.753 80.502L186.311 184.66L187.446 183.891L188.563 183.098L115.753 80.502ZM114.342 81.4563L184.127 186.134L184.452 185.917L184.776 185.698L114.342 81.4563ZM110.422 84.1115L178.92 189.635L179.566 189.216L180.207 188.789L110.422 84.1115ZM108.368 85.4184L172.716 193.523L173.656 192.963L174.587 192.387L108.368 85.4184ZM106.854 85.0657L6.2085 9.58188L5.6535 10.3219L5.10944 11.07L106.854 85.0657ZM107.58 84.3812L186.629 182.251L189.242 180.14L191.74 177.892L107.58 84.3812ZM108.306 83.8004L34.0779 -17.7747L33.1235 -17.0772L32.1824 -16.362L108.306 83.8004ZM109.53 82.9291L181.465 186.14L181.773 185.926L182.08 185.709L109.53 82.9291ZM112.475 80.8339L182.966 185.037L183.295 184.815L183.622 184.59L112.475 80.8339ZM114.591 79.3611L186.202 182.798L186.627 182.504L187.05 182.206L114.591 79.3611ZM116.272 78.1372L192.188 178.456L192.392 178.302L192.595 178.147L116.272 78.1372ZM118.491 76.1872L26.8789 -10.0361L25.4938 -8.56441L24.1567 -7.04903L118.491 76.1872ZM118.076 74.9426L43.6789 176.394L45.2242 177.527L46.8033 178.612L118.076 74.9426ZM116.707 74.0506L186.492 -30.6267L185.2 -31.4881L183.887 -32.3174L116.707 74.0506ZM115.628 73.3868L46.6039 178.567L48.4917 179.806L50.4227 180.976L115.628 73.3868ZM114.135 72.4325L46.2414 178.346L46.8473 178.735L47.4576 179.116L114.135 72.4325ZM112.434 71.3538L179.334 -35.1904L112.434 71.3538ZM110.733 70.2959L41.5875 175.397L43.1773 176.443L44.798 177.44L110.733 70.2959ZM109.281 69.3624L38.7224 173.52L40.6397 174.819L42.6034 176.046L109.281 69.3624ZM108.306 68.6986L179.579 -34.9712L179.314 -35.1533L179.048 -35.3341L108.306 68.6986ZM106.999 67.8481L36.5652 172.09L38.1757 173.178L39.8191 174.216L106.999 67.8481ZM105.485 66.8109L30.4631 167.801L32.0754 168.999L33.7251 170.145L105.485 66.8109ZM104.219 65.8151L19.0411 158.4L20.9624 160.168L22.9554 161.854L104.219 65.8151ZM103.784 64.9024L179.267 165.548L180.84 164.368L182.374 163.141L103.784 64.9024ZM104.012 64.8194V190.626C88.3969 190.626 76.2151 187.689 69.6989 185.827C62.5798 183.793 57.0017 181.506 53.4977 179.949L104.593 64.9854L155.687 -49.978C151.952 -51.638 131.674 -60.987 104.012 -60.987V64.8194ZM104.593 64.9854L61.1006 183.035C54.4383 180.58 49.0761 177.939 45.2004 175.824L105.443 65.3795L165.686 -45.0654C161.201 -47.5114 155.272 -50.4161 148.085 -53.0642L104.593 64.9854ZM105.443 65.3795L51.1632 178.874C48.1186 177.418 45.4044 175.953 43.0278 174.567L106.418 65.8981L169.808 -42.7708C166.768 -44.5444 163.404 -46.3545 159.723 -48.1148L105.443 65.3795ZM106.418 65.8981L48.3769 177.516C46.3185 176.445 43.8699 175.088 41.1535 173.406L107.372 66.4375L173.591 -40.5314C170.294 -42.5725 167.209 -44.2895 164.459 -45.7195L106.418 65.8981ZM107.372 66.4375L44.9548 175.668C44.1856 175.229 42.9696 174.519 41.4625 173.577L108.14 66.8938L174.817 -39.7898C172.867 -41.0083 171.14 -42.0217 169.79 -42.7931L107.372 66.4375ZM108.14 66.8938L41.4625 173.577C42.0847 173.966 43.131 174.614 44.4184 175.375C45.2014 175.838 48.2809 177.662 52.3338 179.688L108.596 67.1635L164.859 -45.3612C167.138 -44.2216 168.916 -43.2438 169.892 -42.6986C170.968 -42.0974 171.84 -41.5888 172.421 -41.2451C173.557 -40.5743 174.416 -40.0404 174.817 -39.7898L108.14 66.8938ZM108.596 67.1635L45.2059 175.832C44.9585 175.688 44.7822 175.583 44.6928 175.53C44.6001 175.475 44.5574 175.449 44.5729 175.458L109.779 67.8688L174.984 -39.7206C174.138 -40.2336 173.108 -40.851 171.986 -41.5054L108.596 67.1635ZM109.779 67.8688L44.5729 175.458C44.8856 175.648 45.2302 175.857 45.6082 176.088L111.21 68.7401L176.812 -38.6083C176.194 -38.9858 175.584 -39.3569 174.984 -39.7206L109.779 67.8688ZM111.21 68.7401L46.9134 176.875C46.4148 176.579 45.972 176.306 45.586 176.062L112.766 69.6943L179.946 -36.6737C178.508 -37.5813 177.028 -38.4901 175.507 -39.3951L111.21 68.7401ZM112.766 69.6943L47.6228 177.322C48.2749 177.716 48.9188 178.105 49.5532 178.485L114.28 70.6071L179.007 -37.2711C178.673 -37.4713 178.308 -37.6916 177.909 -37.9331L112.766 69.6943ZM114.28 70.6071L49.5532 178.485C51.4185 179.604 48.4053 177.796 50.2533 178.905C50.701 179.174 49.8898 178.687 50.3372 178.956C50.4112 179 50.284 178.924 50.358 178.968C50.5054 179.057 50.2314 178.892 50.3788 178.981C50.8221 179.247 49.977 178.74 50.4202 179.005C50.4211 179.006 50.422 179.006 50.4228 179.007C50.4237 179.007 50.4245 179.008 50.4254 179.009C50.4263 179.009 50.4271 179.01 50.428 179.01C50.4288 179.011 50.4297 179.011 50.4306 179.012C50.4397 179.017 50.4317 179.012 50.4409 179.018C50.4417 179.018 50.4426 179.019 50.4434 179.019C50.4443 179.02 50.4452 179.02 50.446 179.021C50.4469 179.021 50.4477 179.022 50.4486 179.022C50.4495 179.023 50.4503 179.023 50.4512 179.024C50.6523 179.145 50.2551 178.906 50.4563 179.027C50.4572 179.028 50.458 179.028 50.4589 179.029C50.4597 179.029 50.4606 179.03 50.4615 179.03C50.6801 179.161 50.2839 178.924 50.5025 179.055C51.2974 179.532 49.7892 178.627 50.5839 179.104C52.5921 180.309 48.6566 177.947 50.6645 179.152C50.9474 179.322 50.4618 179.03 50.7444 179.2C50.8148 179.242 50.7532 179.205 50.8234 179.247C54.7396 181.597 46.9856 176.945 50.9016 179.294L115.628 71.4161L180.355 -36.4621C178.621 -37.5029 182.071 -35.4329 180.336 -36.4738C180.335 -36.4742 180.334 -36.4747 180.333 -36.4752C180.333 -36.4757 180.332 -36.4762 180.331 -36.4767C180.33 -36.4772 180.329 -36.4777 180.329 -36.4781C180.328 -36.4786 180.327 -36.4791 180.326 -36.4796C180.031 -36.6567 180.616 -36.3054 180.321 -36.4825C180.32 -36.483 180.32 -36.4835 180.319 -36.484C180.318 -36.4845 180.317 -36.485 180.316 -36.4855C180.177 -36.5691 180.417 -36.4253 180.277 -36.509C178.179 -37.7677 182.336 -35.2739 180.238 -36.5326C177.983 -37.8855 182.453 -35.2034 180.198 -36.5564C178.486 -37.5836 181.751 -35.6248 180.038 -36.6527C178.563 -37.5376 181.186 -35.9635 179.707 -36.851C178.194 -37.7586 181.051 -36.0449 179.537 -36.9531C179 -37.2754 179.988 -36.6825 179.451 -37.0049C177.909 -37.9301 180.971 -36.0927 179.429 -37.0179C178.267 -37.7151 180.569 -36.3338 179.407 -37.031C179.407 -37.031 179.364 -37.0571 179.363 -37.0572C179.051 -37.2446 179.588 -36.9223 179.276 -37.1099C178.981 -37.2867 179.548 -36.9464 179.253 -37.1232C179.204 -37.1527 179.292 -37.1003 179.242 -37.1298C178.848 -37.3662 179.625 -36.9001 179.231 -37.1365C178.756 -37.4217 179.662 -36.8778 179.187 -37.1632C176.788 -38.6022 181.406 -35.8314 179.007 -37.2711L114.28 70.6071ZM115.628 71.4161L50.9016 179.294C52.0393 179.977 53.8599 181.054 56.0372 182.251L116.666 72.0177L177.294 -38.216C178.176 -37.7308 178.871 -37.3325 179.318 -37.0733C179.781 -36.8048 180.136 -36.5938 180.355 -36.4621L115.628 71.4161ZM116.666 72.0177L53.8927 181.044C54.1289 181.18 54.2785 181.267 54.3533 181.311C54.4333 181.358 54.3876 181.332 54.2414 181.244L118.968 73.366L183.695 -34.5121C182.208 -35.4042 180.743 -36.2581 179.439 -37.009L116.666 72.0177ZM118.968 73.366L56.0301 182.297C55.5144 181.999 54.7477 181.549 53.7969 180.963C52.8766 180.395 51.5048 179.53 49.8421 178.401L120.483 74.2995L191.123 -29.8023C187.278 -32.4112 183.926 -34.3986 181.906 -35.5654L118.968 73.366ZM120.483 74.2995L49.8421 178.401C48.1173 177.231 45.4871 175.379 42.3898 172.901C39.5716 170.646 34.5038 166.399 28.8693 160.295L121.312 74.9633L213.755 -10.3687C203.582 -21.3893 193.648 -28.0892 191.123 -29.8023L120.483 74.2995ZM121.312 74.9633L28.8693 160.295C23.9483 154.964 16.5379 146.017 9.96096 133.411C3.32502 120.692 -4.24517 100.756 -4.24517 75.4404H121.561H247.368C247.368 26.9228 220.357 -3.21697 213.755 -10.3687L121.312 74.9633ZM121.561 75.4404H-4.24517C-4.24517 50.9194 2.8896 31.9463 8.36403 20.7093C13.9406 9.26263 20.1511 0.996929 24.1752 -3.87432L121.167 76.2495L218.159 156.373C222.954 150.569 247.368 121.248 247.368 75.4404H121.561ZM121.167 76.2495L25.9539 -5.98013C30.7536 -11.5377 35.1295 -15.5644 38.0274 -18.0626L120.171 77.2244L202.315 172.512C206.015 169.322 211.055 164.645 216.38 158.479L121.167 76.2495ZM120.171 77.2244L36.3823 -16.6193C39.2997 -19.2241 42.011 -21.3682 44.3587 -23.0944L118.885 78.2617L193.412 179.618C196.7 177.2 200.269 174.364 203.961 171.068L120.171 77.2244ZM118.885 78.2617L44.3587 -23.0944C43.926 -22.7762 43.5268 -22.4831 43.1603 -22.2143L117.558 79.2366L191.955 180.688C192.418 180.348 192.904 179.991 193.412 179.618L118.885 78.2617ZM117.558 79.2366L47.7728 -25.4407C45.9592 -24.2316 44.3528 -23.0877 44.1548 -22.9474L116.873 79.7137L189.591 182.375C189.588 182.378 189.557 182.399 189.503 182.437C189.452 182.473 189.357 182.54 189.228 182.63C189.106 182.715 188.899 182.859 188.631 183.042C188.389 183.208 187.932 183.521 187.343 183.914L117.558 79.2366ZM116.873 79.7137L45.0295 -23.5614C44.2977 -23.0524 43.5881 -22.5519 42.9428 -22.094L115.753 80.502L188.563 183.098C188.661 183.029 188.724 182.984 188.755 182.962C188.788 182.939 188.773 182.95 188.717 182.989L116.873 79.7137ZM115.753 80.502L45.1946 -23.6555C44.8144 -23.3979 44.3864 -23.1084 43.9086 -22.7856L114.342 81.4563L184.776 185.698C185.322 185.329 185.834 184.983 186.311 184.66L115.753 80.502ZM114.342 81.4563L44.5574 -23.221C43.6124 -22.591 42.6672 -21.9521 41.7224 -21.3042L112.869 82.452L184.017 186.208C184.04 186.192 184.077 186.167 184.127 186.134L114.342 81.4563ZM112.869 82.452L41.7224 -21.3042C41.4089 -21.0893 41.1503 -20.9131 40.942 -20.772L111.5 83.3855L182.059 187.543C182.708 187.103 183.362 186.657 184.017 186.208L112.869 82.452ZM111.5 83.3855L40.942 -20.772C40.812 -20.684 40.7202 -20.622 40.6618 -20.5827C40.601 -20.5417 40.5961 -20.5387 40.6368 -20.5658L110.422 84.1115L180.207 188.789C180.846 188.362 181.483 187.933 182.059 187.543L111.5 83.3855ZM110.422 84.1115L41.9237 -21.4124C41.7989 -21.3314 41.7523 -21.3019 41.7746 -21.3161C41.7875 -21.3242 41.8247 -21.3479 41.8844 -21.3854C41.9437 -21.4227 42.0328 -21.4784 42.1492 -21.5504L108.368 85.4184L174.587 192.387C176.155 191.416 177.634 190.47 178.92 189.635L110.422 84.1115ZM108.368 85.4184L44.02 -22.6862C46.7781 -24.3279 52.3496 -27.5046 59.9073 -30.602C63.8068 -32.2002 69.4764 -34.2923 76.5271 -36.0728C83.3069 -37.7848 93.9282 -39.8694 107.103 -39.8694V85.937V211.743C131.419 211.743 149.457 204.622 155.325 202.217C163.304 198.946 169.377 195.51 172.716 193.523L108.368 85.4184ZM107.103 85.937V-39.8694C126.357 -39.8694 163.905 -34.9707 195.75 -3.12531C227.595 28.7201 232.494 66.268 232.494 85.5221H106.688H-19.1187C-19.1187 105.053 -14.1509 142.808 17.8328 174.792C49.8165 206.776 87.5719 211.743 107.103 211.743V85.937ZM106.688 85.5221H232.494C232.494 117.7 220.372 142.872 208.598 159.062L106.854 85.0657L5.10944 11.07C-6.88584 27.5635 -19.1187 53.0404 -19.1187 85.5221H106.688ZM106.854 85.0657L207.499 160.55C201.471 168.586 195.822 174.053 193.433 176.306C190.517 179.055 188.065 181.091 186.629 182.251L107.58 84.3812L28.5308 -13.4888C27.4833 -12.6428 16.4667 -4.09572 6.2085 9.58188L106.854 85.0657ZM107.58 84.3812L191.74 177.892C190.344 179.149 189.178 180.14 188.415 180.778C187.614 181.448 186.941 181.993 186.456 182.381C185.513 183.135 184.786 183.691 184.429 183.963L108.306 83.8004L32.1824 -16.362C31.7298 -16.018 27.8009 -13.0732 23.4196 -9.13001L107.58 84.3812ZM108.306 83.8004L182.534 185.375C181.976 185.783 181.599 186.047 181.465 186.14L109.53 82.9291L37.5945 -20.2823C36.5479 -19.5528 35.3542 -18.7073 34.0779 -17.7747L108.306 83.8004ZM109.53 82.9291L182.08 185.709C183.14 184.961 184.169 184.221 185.162 183.496L111.002 81.8711L36.8435 -19.7542C36.8126 -19.7317 36.8598 -19.7664 36.9792 -19.8507L109.53 82.9291ZM111.002 81.8711L185.162 183.496C184.602 183.905 183.866 184.429 182.966 185.037L112.475 80.8339L41.9848 -23.3695C40.1447 -22.1247 38.4267 -20.9095 36.8435 -19.7542L111.002 81.8711ZM112.475 80.8339L183.622 184.59C184.415 184.047 185.275 183.451 186.162 182.827L113.761 79.9419L41.3607 -22.9434C41.4006 -22.9715 41.4291 -22.9914 41.4452 -23.0027C41.4614 -23.014 41.4675 -23.0182 41.4629 -23.015C41.4584 -23.0119 41.4449 -23.0025 41.4219 -22.9866C41.3989 -22.9708 41.3678 -22.9494 41.3282 -22.9223L112.475 80.8339ZM113.761 79.9419L186.162 182.827C186.225 182.783 186.275 182.748 186.316 182.719C186.356 182.691 186.382 182.673 186.394 182.664C186.4 182.66 186.401 182.659 186.399 182.661C186.396 182.663 186.387 182.669 186.373 182.679C186.36 182.688 186.339 182.703 186.312 182.722C186.284 182.741 186.247 182.767 186.202 182.798L114.591 79.3611L42.981 -24.076C42.3836 -23.6624 41.7791 -23.2378 41.3607 -22.9434L113.761 79.9419ZM114.591 79.3611L187.05 182.206C188.646 181.081 190.376 179.828 192.188 178.456L116.272 78.1372L40.3545 -22.1817C41.1436 -22.7788 41.7534 -23.2163 42.1326 -23.4835L114.591 79.3611ZM116.272 78.1372L192.595 178.147C194.871 176.41 197.876 174.022 201.201 171.067L117.62 77.0377L34.0386 -16.9912C36.6166 -19.2827 38.7234 -20.9381 39.9481 -21.8728L116.272 78.1372ZM117.62 77.0377L201.201 171.067C203.431 169.085 207.888 165.019 212.826 159.424L118.491 76.1872L24.1567 -7.04903C26.6162 -9.8364 28.7587 -12.0043 30.2373 -13.4477C31.7691 -14.943 33.0802 -16.1392 34.0386 -16.9912L117.62 77.0377ZM118.491 76.1872L210.103 162.411C212.896 159.444 218.771 152.967 224.703 143.698C228.262 138.138 244.63 112.738 244.63 75.6686H118.823H-6.9834C-6.9834 55.3749 -2.08065 39.4688 1.60383 30.0273C5.433 20.2151 9.77623 12.7534 12.7769 8.06483C18.5986 -1.03156 24.3077 -7.30414 26.8789 -10.0361L118.491 76.1872ZM118.823 75.6686H244.63C244.63 41.2234 230.771 16.7275 223.448 5.74375C215.494 -6.18837 207.22 -14.154 202.776 -18.1537L118.616 75.3575L34.4555 168.869C30.1497 164.993 21.9795 157.142 14.0939 145.313C6.84055 134.433 -6.9834 110.031 -6.9834 75.6686H118.823ZM118.616 75.3575L202.776 -18.1537C197.22 -23.1535 192.292 -26.7044 189.349 -28.7272L118.076 74.9426L46.8033 178.612C44.3035 176.894 39.7342 173.619 34.4555 168.869L118.616 75.3575ZM118.076 74.9426L192.474 -26.5084C189.071 -29.0034 185.865 -31.1075 182.993 -32.8621L117.392 74.4862L51.7899 181.835C49.4166 180.384 46.6663 178.584 43.6789 176.394L118.076 74.9426ZM117.392 74.4862L182.993 -32.8621C183.926 -32.2921 185.115 -31.5445 186.492 -30.6267L116.707 74.0506L46.9223 178.728C48.7138 179.922 50.3593 180.96 51.7899 181.835L117.392 74.4862ZM116.707 74.0506L183.887 -32.3174C182.67 -33.0859 181.557 -33.7646 180.834 -34.2026L115.628 73.3868L50.4227 180.976C50.4675 181.003 50.4216 180.976 50.3056 180.904C50.2051 180.842 49.9256 180.67 49.5274 180.419L116.707 74.0506ZM115.628 73.3868L184.653 -31.7934C183.28 -32.6943 181.981 -33.5208 180.812 -34.2511L114.135 72.4325L47.4576 179.116C47.3954 179.077 47.0915 178.887 46.6039 178.567L115.628 73.3868ZM114.135 72.4325L182.028 -33.4813C181.129 -34.0577 180.229 -34.628 179.334 -35.1904L112.434 71.3538L45.534 177.898C45.8276 178.082 46.0618 178.231 46.2414 178.346L114.135 72.4325ZM112.434 71.3538L179.334 -35.1904C178.452 -35.7439 177.562 -36.2979 176.668 -36.8482L110.733 70.2959L44.798 177.44C44.9823 177.553 45.2261 177.705 45.534 177.898L112.434 71.3538ZM110.733 70.2959L179.878 -34.805C178.695 -35.5832 177.377 -36.4347 175.958 -37.3213L109.281 69.3624L42.6034 176.046C42.07 175.713 41.7193 175.483 41.5875 175.397L110.733 70.2959ZM109.281 69.3624L179.839 -34.7951C179.682 -34.9012 179.579 -34.9718 179.518 -35.0129C179.489 -35.0326 179.479 -35.0396 179.485 -35.0356C179.489 -35.0325 179.523 -35.0097 179.579 -34.9712L108.306 68.6986L37.0328 172.368C37.6185 172.771 38.2303 173.187 38.7224 173.52L109.281 69.3624ZM108.306 68.6986L179.048 -35.3341C177.113 -36.6497 175.389 -37.7556 174.179 -38.5199L106.999 67.8481L39.8191 174.216C39.689 174.134 39.4402 173.976 39.0979 173.753C38.7668 173.538 38.2366 173.189 37.5635 172.731L108.306 68.6986ZM106.999 67.8481L177.433 -36.3938C177.356 -36.4452 177.294 -36.4883 177.244 -36.5228L105.485 66.8109L33.7251 170.145C34.6711 170.801 35.618 171.45 36.5652 172.09L106.999 67.8481ZM105.485 66.8109L180.506 -34.1795C181.598 -33.3684 183.346 -32.0316 185.483 -30.2238L104.219 65.8151L22.9554 161.854C25.811 164.27 28.4032 166.271 30.4631 167.801L105.485 66.8109ZM104.219 65.8151L189.397 -26.7697C192.394 -24.0125 199.217 -17.5096 206.203 -7.72844C209.819 -2.6659 215.014 5.39383 219.569 16.1446C224.043 26.7015 229.507 43.6387 229.507 65.0891H103.701H-22.1059C-22.1059 105.084 -3.28735 131.876 1.45727 138.519C8.61672 148.542 15.6983 155.325 19.0411 158.4L104.219 65.8151ZM103.701 65.0891H229.507C229.507 78.8919 227.203 96.9085 218.685 116.075C209.842 135.971 196.135 152.897 179.267 165.548L103.784 64.9024L28.2996 -35.7428C-9.93761 -7.06482 -22.1059 34.3103 -22.1059 65.0891H103.701ZM103.784 64.9024L182.374 163.141C161.744 179.645 134.489 190.626 104.012 190.626V64.8194V-60.987C73.3681 -60.987 45.9609 -49.9504 25.1929 -33.3359L103.784 64.9024Z" fill="#AD9686" mask="url(#path-2-outside-1_119_5)"/>
<mask id="path-4-outside-2_119_5" maskUnits="userSpaceOnUse" x="23" y="41.4839" width="104" height="57" fill="black">
<rect fill="white" x="23" y="41.4839" width="104" height="57"/>
<path d="M48.1361 65.6613C48.4889 65.6613 48.6653 65.8209 48.6653 66.1401C48.6653 66.3753 48.4889 66.6862 48.1361 67.0726C47.8001 67.459 47.3632 67.879 46.8256 68.3327C46.3048 68.7863 45.7167 69.2483 45.0615 69.7188C44.4062 70.1892 43.7594 70.6428 43.121 71.0796C42.4993 71.4997 41.9281 71.8861 41.4073 72.2389C40.9032 72.5749 40.5168 72.8269 40.248 72.995C38.8031 73.919 37.5766 74.6919 36.5685 75.3135C35.5773 75.9183 34.7624 76.414 34.124 76.8004C33.5024 77.1868 33.0487 77.4892 32.7631 77.7077C32.4943 77.9093 32.3599 78.0773 32.3599 78.2117C32.3599 78.3797 32.5867 78.6317 33.0403 78.9677C33.494 79.287 34.0988 79.665 34.8548 80.1018C35.6277 80.5386 36.5097 81.0175 37.501 81.5383C38.5091 82.0591 39.5591 82.5968 40.6512 83.1512C41.0544 83.3696 41.5585 83.6384 42.1633 83.9577C42.7681 84.2601 43.3982 84.5961 44.0534 84.9657C44.7255 85.3185 45.3891 85.6882 46.0444 86.0746C46.7164 86.461 47.3212 86.8306 47.8589 87.1835C48.3965 87.5363 48.8249 87.8639 49.1442 88.1663C49.4802 88.4688 49.6482 88.7124 49.6482 88.8972C49.6482 89.082 49.5894 89.2332 49.4718 89.3508C49.371 89.4516 49.1862 89.502 48.9173 89.502C48.5141 89.502 47.9597 89.376 47.254 89.124C46.5652 88.872 45.7839 88.536 44.9103 88.1159C44.0366 87.6959 43.0958 87.2171 42.0877 86.6794C41.0796 86.1418 40.0632 85.5874 39.0383 85.0161C38.0134 84.4449 36.997 83.8821 35.9889 83.3276C34.9808 82.7732 34.04 82.2692 33.1663 81.8155C32.5111 81.4795 31.8642 81.1519 31.2258 80.8327C30.5874 80.5134 30.0077 80.2194 29.4869 79.9506C28.9829 79.665 28.5712 79.4214 28.252 79.2198C27.9496 79.0013 27.7984 78.8333 27.7984 78.7157C27.7984 78.5645 27.9244 78.3881 28.1764 78.1865C28.4452 77.9681 28.9241 77.6489 29.6129 77.2288C29.9657 77.0272 30.495 76.7164 31.2006 76.2964C31.9062 75.8763 32.6875 75.4143 33.5444 74.9103C34.4012 74.3894 35.2833 73.8602 36.1905 73.3226C37.1146 72.7681 37.9546 72.2473 38.7107 71.7601C40.1892 70.836 41.4493 69.996 42.4909 69.2399C43.5326 68.4839 44.4062 67.8454 45.1119 67.3246C45.8343 66.787 46.4308 66.3753 46.9012 66.0897C47.3716 65.8041 47.7833 65.6613 48.1361 65.6613ZM92.1331 45.5252C92.4187 45.5252 92.5615 45.7016 92.5615 46.0544C92.5615 46.2728 92.4355 46.6341 92.1835 47.1381C91.9483 47.6253 91.629 48.205 91.2258 48.877C90.8394 49.5491 90.3942 50.2715 89.8901 51.0444C89.4029 51.8172 88.8989 52.5817 88.378 53.3377C87.874 54.0938 87.3784 54.8162 86.8911 55.505C86.4207 56.1771 86.0175 56.7567 85.6814 57.244C85.0934 58.084 84.3794 59.0921 83.5393 60.2681C82.6993 61.4442 81.7836 62.7211 80.7923 64.0988C79.8011 65.4765 78.7594 66.913 77.6673 68.4083C76.5753 69.9036 75.4832 71.3989 74.3911 72.8942C73.3159 74.3894 72.2574 75.8427 71.2157 77.254C70.1909 78.6653 69.2416 79.9674 68.3679 81.1603C67.4943 82.3364 66.7298 83.378 66.0746 84.2853C65.4194 85.1925 64.9237 85.8814 64.5877 86.3518C63.9325 87.2927 63.2856 88.1915 62.6472 89.0484C62.0255 89.8884 61.4795 90.6613 61.0091 91.3669C60.4714 92.1398 60.0094 92.7614 59.623 93.2319C59.2366 93.7023 58.8753 93.9375 58.5393 93.9375C58.3881 93.9375 58.2537 93.8955 58.1361 93.8115C58.0353 93.7275 57.9849 93.5679 57.9849 93.3327C57.9849 92.9126 58.2369 92.2658 58.7409 91.3921C59.2618 90.5185 59.9506 89.4768 60.8075 88.2671C61.7651 86.9231 62.7984 85.4782 63.9073 83.9325C65.0329 82.37 66.2006 80.6983 67.4103 78.9173C68.3511 77.5565 69.4012 76.0696 70.5605 74.4567C71.7198 72.8269 72.9294 71.1468 74.1895 69.4163C75.4496 67.669 76.7265 65.9049 78.0202 64.124C79.3306 62.3263 80.6075 60.579 81.8508 58.8821C83.0941 57.1851 84.2786 55.5638 85.4042 54.0181C86.5299 52.4724 87.538 51.0696 88.4284 49.8095C88.8821 49.1878 89.2937 48.6166 89.6633 48.0958C90.0329 47.5581 90.3689 47.1045 90.6714 46.7349C90.9738 46.3485 91.2426 46.0544 91.4778 45.8528C91.7298 45.6344 91.9483 45.5252 92.1331 45.5252ZM101.201 64.9304C101.369 64.9304 101.604 64.9976 101.906 65.1321C102.225 65.2497 102.57 65.4093 102.94 65.6109C103.326 65.7957 103.721 66.0057 104.124 66.2409C104.544 66.4593 104.93 66.6778 105.283 66.8962C105.636 67.0978 105.947 67.2826 106.216 67.4506C106.485 67.6186 106.669 67.7278 106.77 67.7782C107.173 68.0134 107.652 68.2991 108.207 68.6351C108.761 68.9711 109.341 69.3239 109.946 69.6935C110.567 70.0632 111.197 70.4496 111.836 70.8528C112.474 71.2392 113.087 71.6089 113.675 71.9617C114.263 72.3145 114.809 72.6421 115.314 72.9446C115.818 73.247 116.238 73.4906 116.574 73.6754C117.682 74.3138 118.615 74.8599 119.371 75.3135C120.127 75.7503 120.74 76.1284 121.211 76.4476C121.681 76.7668 122.017 77.0356 122.219 77.254C122.42 77.4724 122.521 77.6657 122.521 77.8337C122.521 78.1025 122.362 78.4301 122.042 78.8165C121.723 79.1862 121.32 79.581 120.833 80.001C120.362 80.421 119.841 80.8411 119.27 81.2611C118.699 81.6811 118.161 82.0759 117.657 82.4456C117.506 82.5464 117.229 82.7396 116.826 83.0252C116.439 83.294 115.986 83.6132 115.465 83.9829C114.944 84.3357 114.373 84.7221 113.751 85.1421C113.146 85.5454 112.55 85.9486 111.962 86.3518C111.374 86.755 110.819 87.1331 110.298 87.4859C109.778 87.8387 109.341 88.1327 108.988 88.3679C108.03 88.9896 107.199 89.5188 106.493 89.9556C105.787 90.3757 105.275 90.5857 104.956 90.5857C104.62 90.5857 104.452 90.4177 104.452 90.0817C104.452 89.8968 104.519 89.712 104.653 89.5272C104.804 89.3256 105.098 89.0484 105.535 88.6956C105.703 88.5444 105.997 88.3091 106.417 87.9899C106.854 87.6707 107.35 87.3179 107.904 86.9315C108.475 86.5282 109.072 86.0998 109.694 85.6462C110.315 85.1925 110.912 84.7725 111.483 84.3861C112.071 83.9829 112.592 83.6216 113.045 83.3024C113.499 82.9832 113.835 82.748 114.053 82.5968C114.793 82.0759 115.473 81.5803 116.095 81.1099C116.733 80.6226 117.279 80.1774 117.733 79.7742C118.186 79.371 118.539 79.0265 118.791 78.7409C119.06 78.4553 119.195 78.2453 119.195 78.1109C119.195 78.0101 119.111 77.8841 118.943 77.7329C118.775 77.5817 118.556 77.4136 118.287 77.2288C118.035 77.044 117.758 76.8592 117.456 76.6744C117.153 76.4896 116.876 76.3132 116.624 76.1452C116.305 75.9435 115.868 75.6747 115.314 75.3387C114.776 74.9859 114.171 74.5995 113.499 74.1794C112.844 73.7594 112.155 73.3226 111.432 72.869C110.71 72.4153 110.021 71.9869 109.366 71.5837C108.727 71.1636 108.139 70.7856 107.602 70.4496C107.081 70.0968 106.686 69.828 106.417 69.6431C105.997 69.3575 105.468 69.0131 104.83 68.6099C104.208 68.1899 103.595 67.7698 102.99 67.3498C102.402 66.913 101.889 66.5097 101.453 66.1401C101.033 65.7537 100.823 65.4597 100.823 65.2581C100.823 65.1573 100.856 65.0817 100.923 65.0313C101.007 64.964 101.1 64.9304 101.201 64.9304Z"/>
</mask>
<path d="M48.1361 65.6613C48.4889 65.6613 48.6653 65.8209 48.6653 66.1401C48.6653 66.3753 48.4889 66.6862 48.1361 67.0726C47.8001 67.459 47.3632 67.879 46.8256 68.3327C46.3048 68.7863 45.7167 69.2483 45.0615 69.7188C44.4062 70.1892 43.7594 70.6428 43.121 71.0796C42.4993 71.4997 41.9281 71.8861 41.4073 72.2389C40.9032 72.5749 40.5168 72.8269 40.248 72.995C38.8031 73.919 37.5766 74.6919 36.5685 75.3135C35.5773 75.9183 34.7624 76.414 34.124 76.8004C33.5024 77.1868 33.0487 77.4892 32.7631 77.7077C32.4943 77.9093 32.3599 78.0773 32.3599 78.2117C32.3599 78.3797 32.5867 78.6317 33.0403 78.9677C33.494 79.287 34.0988 79.665 34.8548 80.1018C35.6277 80.5386 36.5097 81.0175 37.501 81.5383C38.5091 82.0591 39.5591 82.5968 40.6512 83.1512C41.0544 83.3696 41.5585 83.6384 42.1633 83.9577C42.7681 84.2601 43.3982 84.5961 44.0534 84.9657C44.7255 85.3185 45.3891 85.6882 46.0444 86.0746C46.7164 86.461 47.3212 86.8306 47.8589 87.1835C48.3965 87.5363 48.8249 87.8639 49.1442 88.1663C49.4802 88.4688 49.6482 88.7124 49.6482 88.8972C49.6482 89.082 49.5894 89.2332 49.4718 89.3508C49.371 89.4516 49.1862 89.502 48.9173 89.502C48.5141 89.502 47.9597 89.376 47.254 89.124C46.5652 88.872 45.7839 88.536 44.9103 88.1159C44.0366 87.6959 43.0958 87.2171 42.0877 86.6794C41.0796 86.1418 40.0632 85.5874 39.0383 85.0161C38.0134 84.4449 36.997 83.8821 35.9889 83.3276C34.9808 82.7732 34.04 82.2692 33.1663 81.8155C32.5111 81.4795 31.8642 81.1519 31.2258 80.8327C30.5874 80.5134 30.0077 80.2194 29.4869 79.9506C28.9829 79.665 28.5712 79.4214 28.252 79.2198C27.9496 79.0013 27.7984 78.8333 27.7984 78.7157C27.7984 78.5645 27.9244 78.3881 28.1764 78.1865C28.4452 77.9681 28.9241 77.6489 29.6129 77.2288C29.9657 77.0272 30.495 76.7164 31.2006 76.2964C31.9062 75.8763 32.6875 75.4143 33.5444 74.9103C34.4012 74.3894 35.2833 73.8602 36.1905 73.3226C37.1146 72.7681 37.9546 72.2473 38.7107 71.7601C40.1892 70.836 41.4493 69.996 42.4909 69.2399C43.5326 68.4839 44.4062 67.8454 45.1119 67.3246C45.8343 66.787 46.4308 66.3753 46.9012 66.0897C47.3716 65.8041 47.7833 65.6613 48.1361 65.6613ZM92.1331 45.5252C92.4187 45.5252 92.5615 45.7016 92.5615 46.0544C92.5615 46.2728 92.4355 46.6341 92.1835 47.1381C91.9483 47.6253 91.629 48.205 91.2258 48.877C90.8394 49.5491 90.3942 50.2715 89.8901 51.0444C89.4029 51.8172 88.8989 52.5817 88.378 53.3377C87.874 54.0938 87.3784 54.8162 86.8911 55.505C86.4207 56.1771 86.0175 56.7567 85.6814 57.244C85.0934 58.084 84.3794 59.0921 83.5393 60.2681C82.6993 61.4442 81.7836 62.7211 80.7923 64.0988C79.8011 65.4765 78.7594 66.913 77.6673 68.4083C76.5753 69.9036 75.4832 71.3989 74.3911 72.8942C73.3159 74.3894 72.2574 75.8427 71.2157 77.254C70.1909 78.6653 69.2416 79.9674 68.3679 81.1603C67.4943 82.3364 66.7298 83.378 66.0746 84.2853C65.4194 85.1925 64.9237 85.8814 64.5877 86.3518C63.9325 87.2927 63.2856 88.1915 62.6472 89.0484C62.0255 89.8884 61.4795 90.6613 61.0091 91.3669C60.4714 92.1398 60.0094 92.7614 59.623 93.2319C59.2366 93.7023 58.8753 93.9375 58.5393 93.9375C58.3881 93.9375 58.2537 93.8955 58.1361 93.8115C58.0353 93.7275 57.9849 93.5679 57.9849 93.3327C57.9849 92.9126 58.2369 92.2658 58.7409 91.3921C59.2618 90.5185 59.9506 89.4768 60.8075 88.2671C61.7651 86.9231 62.7984 85.4782 63.9073 83.9325C65.0329 82.37 66.2006 80.6983 67.4103 78.9173C68.3511 77.5565 69.4012 76.0696 70.5605 74.4567C71.7198 72.8269 72.9294 71.1468 74.1895 69.4163C75.4496 67.669 76.7265 65.9049 78.0202 64.124C79.3306 62.3263 80.6075 60.579 81.8508 58.8821C83.0941 57.1851 84.2786 55.5638 85.4042 54.0181C86.5299 52.4724 87.538 51.0696 88.4284 49.8095C88.8821 49.1878 89.2937 48.6166 89.6633 48.0958C90.0329 47.5581 90.3689 47.1045 90.6714 46.7349C90.9738 46.3485 91.2426 46.0544 91.4778 45.8528C91.7298 45.6344 91.9483 45.5252 92.1331 45.5252ZM101.201 64.9304C101.369 64.9304 101.604 64.9976 101.906 65.1321C102.225 65.2497 102.57 65.4093 102.94 65.6109C103.326 65.7957 103.721 66.0057 104.124 66.2409C104.544 66.4593 104.93 66.6778 105.283 66.8962C105.636 67.0978 105.947 67.2826 106.216 67.4506C106.485 67.6186 106.669 67.7278 106.77 67.7782C107.173 68.0134 107.652 68.2991 108.207 68.6351C108.761 68.9711 109.341 69.3239 109.946 69.6935C110.567 70.0632 111.197 70.4496 111.836 70.8528C112.474 71.2392 113.087 71.6089 113.675 71.9617C114.263 72.3145 114.809 72.6421 115.314 72.9446C115.818 73.247 116.238 73.4906 116.574 73.6754C117.682 74.3138 118.615 74.8599 119.371 75.3135C120.127 75.7503 120.74 76.1284 121.211 76.4476C121.681 76.7668 122.017 77.0356 122.219 77.254C122.42 77.4724 122.521 77.6657 122.521 77.8337C122.521 78.1025 122.362 78.4301 122.042 78.8165C121.723 79.1862 121.32 79.581 120.833 80.001C120.362 80.421 119.841 80.8411 119.27 81.2611C118.699 81.6811 118.161 82.0759 117.657 82.4456C117.506 82.5464 117.229 82.7396 116.826 83.0252C116.439 83.294 115.986 83.6132 115.465 83.9829C114.944 84.3357 114.373 84.7221 113.751 85.1421C113.146 85.5454 112.55 85.9486 111.962 86.3518C111.374 86.755 110.819 87.1331 110.298 87.4859C109.778 87.8387 109.341 88.1327 108.988 88.3679C108.03 88.9896 107.199 89.5188 106.493 89.9556C105.787 90.3757 105.275 90.5857 104.956 90.5857C104.62 90.5857 104.452 90.4177 104.452 90.0817C104.452 89.8968 104.519 89.712 104.653 89.5272C104.804 89.3256 105.098 89.0484 105.535 88.6956C105.703 88.5444 105.997 88.3091 106.417 87.9899C106.854 87.6707 107.35 87.3179 107.904 86.9315C108.475 86.5282 109.072 86.0998 109.694 85.6462C110.315 85.1925 110.912 84.7725 111.483 84.3861C112.071 83.9829 112.592 83.6216 113.045 83.3024C113.499 82.9832 113.835 82.748 114.053 82.5968C114.793 82.0759 115.473 81.5803 116.095 81.1099C116.733 80.6226 117.279 80.1774 117.733 79.7742C118.186 79.371 118.539 79.0265 118.791 78.7409C119.06 78.4553 119.195 78.2453 119.195 78.1109C119.195 78.0101 119.111 77.8841 118.943 77.7329C118.775 77.5817 118.556 77.4136 118.287 77.2288C118.035 77.044 117.758 76.8592 117.456 76.6744C117.153 76.4896 116.876 76.3132 116.624 76.1452C116.305 75.9435 115.868 75.6747 115.314 75.3387C114.776 74.9859 114.171 74.5995 113.499 74.1794C112.844 73.7594 112.155 73.3226 111.432 72.869C110.71 72.4153 110.021 71.9869 109.366 71.5837C108.727 71.1636 108.139 70.7856 107.602 70.4496C107.081 70.0968 106.686 69.828 106.417 69.6431C105.997 69.3575 105.468 69.0131 104.83 68.6099C104.208 68.1899 103.595 67.7698 102.99 67.3498C102.402 66.913 101.889 66.5097 101.453 66.1401C101.033 65.7537 100.823 65.4597 100.823 65.2581C100.823 65.1573 100.856 65.0817 100.923 65.0313C101.007 64.964 101.1 64.9304 101.201 64.9304Z" fill="#AD9686"/>
<path d="M48.1361 67.0726L45.1583 64.3538L45.1254 64.3898L45.0933 64.4267L48.1361 67.0726ZM46.8256 68.3327L44.2253 65.2508L44.2011 65.2712L44.1773 65.292L46.8256 68.3327ZM43.121 71.0796L45.3785 74.4207L45.3882 74.4141L45.3979 74.4075L43.121 71.0796ZM41.4073 72.2389L43.644 75.594L43.6564 75.5857L43.6687 75.5773L41.4073 72.2389ZM40.248 72.995L38.1109 69.5756L38.0931 69.5867L38.0755 69.598L40.248 72.995ZM36.5685 75.3135L38.6688 78.7556L38.6769 78.7506L38.685 78.7456L36.5685 75.3135ZM34.124 76.8004L32.0361 73.3508L32.0156 73.3632L31.9952 73.3759L34.124 76.8004ZM32.7631 77.7077L35.1825 80.9335L35.1975 80.9222L35.2125 80.9107L32.7631 77.7077ZM33.0403 78.9677L30.6402 82.2079L30.6796 82.2371L30.7198 82.2653L33.0403 78.9677ZM34.8548 80.1018L32.8376 83.5932L32.8541 83.6028L32.8707 83.6121L34.8548 80.1018ZM37.501 81.5383L35.6255 85.1078L35.6378 85.1143L35.6501 85.1207L37.501 81.5383ZM40.6512 83.1512L42.5717 79.6057L42.5245 79.5801L42.4766 79.5558L40.6512 83.1512ZM42.1633 83.9577L40.2812 87.5237L40.3204 87.5444L40.36 87.5642L42.1633 83.9577ZM44.0534 84.9657L42.0723 88.4777L42.1253 88.5076L42.1791 88.5359L44.0534 84.9657ZM46.0444 86.0746L43.996 89.5478L44.0151 89.5591L44.0344 89.5702L46.0444 86.0746ZM49.1442 88.1663L46.371 91.0936L46.4084 91.129L46.4467 91.1635L49.1442 88.1663ZM49.4718 89.3508L52.323 92.202L49.4718 89.3508ZM47.254 89.124L45.8686 92.9108L45.8832 92.9161L45.8978 92.9213L47.254 89.124ZM39.0383 85.0161L41.0014 81.494L39.0383 85.0161ZM33.1663 81.8155L35.0245 78.2369L35.0154 78.2322L35.0063 78.2276L33.1663 81.8155ZM31.2258 80.8327L33.0291 77.2261L31.2258 80.8327ZM29.4869 79.9506L27.4989 83.4588L27.5675 83.4976L27.6375 83.5338L29.4869 79.9506ZM28.252 79.2198L25.8912 82.4886L25.9928 82.562L26.0988 82.629L28.252 79.2198ZM28.1764 78.1865L30.6953 81.3352L30.7073 81.3256L30.7191 81.316L28.1764 78.1865ZM29.6129 77.2288L27.6123 73.7279L27.5626 73.7563L27.5137 73.7861L29.6129 77.2288ZM33.5444 74.9103L35.5888 78.3858L35.6139 78.3711L35.6388 78.3559L33.5444 74.9103ZM36.1905 73.3226L38.2462 76.7915L38.2557 76.7859L38.2651 76.7802L36.1905 73.3226ZM38.7107 71.7601L36.5736 68.3407L36.5499 68.3555L36.5264 68.3707L38.7107 71.7601ZM45.1119 67.3246L47.5065 70.5688L47.5128 70.5641L47.5192 70.5594L45.1119 67.3246ZM48.1361 65.6613V69.6935C47.7851 69.6935 46.7692 69.6229 45.8277 68.7711C44.8096 67.8499 44.6331 66.712 44.6331 66.1401H48.6653H52.6976C52.6976 65.2491 52.4328 63.8717 51.2383 62.7909C50.1204 61.7795 48.8399 61.629 48.1361 61.629V65.6613ZM48.6653 66.1401H44.6331C44.6331 65.2889 44.9346 64.7208 45.0262 64.5593C45.1378 64.3627 45.2162 64.2904 45.1583 64.3538L48.1361 67.0726L51.1139 69.7914C51.4088 69.4684 51.7518 69.0474 52.0398 68.54C52.3079 68.0677 52.6976 67.2265 52.6976 66.1401H48.6653ZM48.1361 67.0726L45.0933 64.4267C44.933 64.6111 44.6585 64.8853 44.2253 65.2508L46.8256 68.3327L49.4259 71.4145C50.0679 70.8727 50.6671 70.3069 51.1789 69.7185L48.1361 67.0726ZM46.8256 68.3327L44.1773 65.292C43.7658 65.6504 43.2791 66.0346 42.7099 66.4433L45.0615 69.7188L47.4131 72.9942C48.1544 72.4621 48.8437 71.9222 49.4739 71.3733L46.8256 68.3327ZM45.0615 69.7188L42.7099 66.4433C42.0783 66.8967 41.4563 67.3328 40.844 67.7518L43.121 71.0796L45.3979 74.4075C46.0625 73.9528 46.7342 73.4817 47.4131 72.9942L45.0615 69.7188ZM43.121 71.0796L40.8635 67.7386C40.2407 68.1593 39.6682 68.5467 39.1458 68.9005L41.4073 72.2389L43.6687 75.5773C44.188 75.2255 44.7579 74.84 45.3785 74.4207L43.121 71.0796ZM41.4073 72.2389L39.1706 68.8839C38.6756 69.2138 38.3285 69.4396 38.1109 69.5756L40.248 72.995L42.3851 76.4143C42.7051 76.2143 43.1308 75.936 43.644 75.594L41.4073 72.2389ZM40.248 72.995L38.0755 69.598C36.6418 70.5149 35.4351 71.2751 34.4521 71.8814L36.5685 75.3135L38.685 78.7456C39.7181 78.1086 40.9644 77.3231 42.4205 76.3919L40.248 72.995ZM36.5685 75.3135L34.4683 71.8714C33.4792 72.475 32.6688 72.9678 32.0361 73.3508L34.124 76.8004L36.2119 80.25C36.8561 79.8601 37.6754 79.3617 38.6688 78.7556L36.5685 75.3135ZM34.124 76.8004L31.9952 73.3759C31.3515 73.776 30.7611 74.1625 30.3137 74.5046L32.7631 77.7077L35.2125 80.9107C35.3363 80.816 35.6532 80.5976 36.2528 80.2249L34.124 76.8004ZM32.7631 77.7077L30.3437 74.4819C30.0713 74.6862 29.6754 75.0117 29.312 75.4659C28.9934 75.8642 28.3276 76.8218 28.3276 78.2117H32.3599H36.3921C36.3921 79.4672 35.7935 80.2736 35.6093 80.5038C35.3803 80.7901 35.1861 80.9307 35.1825 80.9335L32.7631 77.7077ZM32.3599 78.2117H28.3276C28.3276 79.9069 29.3306 80.9995 29.5328 81.2242C29.906 81.6387 30.3192 81.9701 30.6402 82.2079L33.0403 78.9677L35.4404 75.7276C35.3078 75.6293 35.3808 75.6667 35.5271 75.8293C35.6027 75.9133 35.7781 76.1184 35.9504 76.4375C36.1142 76.7409 36.3921 77.3626 36.3921 78.2117H32.3599ZM33.0403 78.9677L30.7198 82.2653C31.3105 82.6811 32.0292 83.1261 32.8376 83.5932L34.8548 80.1018L36.8721 76.6104C36.1684 76.2038 35.6774 75.8929 35.3609 75.6701L33.0403 78.9677ZM34.8548 80.1018L32.8707 83.6121C33.6873 84.0737 34.6067 84.5725 35.6255 85.1078L37.501 81.5383L39.3765 77.9688C38.4128 77.4624 37.5681 77.0036 36.8389 76.5915L34.8548 80.1018ZM37.501 81.5383L35.6501 85.1207C36.6673 85.6462 37.7259 86.1882 38.8258 86.7466L40.6512 83.1512L42.4766 79.5558C41.3924 79.0053 40.3508 78.4721 39.3519 77.9559L37.501 81.5383ZM40.6512 83.1512L38.7307 86.6967C39.1512 86.9245 39.6691 87.2007 40.2812 87.5237L42.1633 83.9577L44.0454 80.3916C43.4478 80.0762 42.9576 79.8147 42.5717 79.6057L40.6512 83.1512ZM42.1633 83.9577L40.36 87.5642C40.8986 87.8335 41.4691 88.1375 42.0723 88.4777L44.0534 84.9657L46.0346 81.4537C45.3272 81.0547 44.6377 80.6867 43.9666 80.3511L42.1633 83.9577ZM44.0534 84.9657L42.1791 88.5359C42.7922 88.8578 43.3979 89.1951 43.996 89.5478L46.0444 86.0746L48.0927 82.6013C47.3804 82.1813 46.6587 81.7793 45.9278 81.3956L44.0534 84.9657ZM46.0444 86.0746L44.0344 89.5702C44.6512 89.9248 45.1869 90.253 45.6465 90.5546L47.8589 87.1835L50.0712 83.8123C49.4556 83.4083 48.7816 82.9972 48.0543 82.579L46.0444 86.0746ZM47.8589 87.1835L45.6465 90.5546C46.067 90.8305 46.2846 91.0117 46.371 91.0936L49.1442 88.1663L51.9173 85.2391C51.3653 84.7161 50.726 84.242 50.0712 83.8123L47.8589 87.1835ZM49.1442 88.1663L46.4467 91.1635C46.4895 91.202 46.3653 91.1008 46.2028 90.8651C46.0785 90.685 45.6159 89.9801 45.6159 88.8972H49.6482H53.6804C53.6804 87.6295 53.1338 86.7104 52.8416 86.2866C52.5111 85.8073 52.1348 85.433 51.8416 85.1692L49.1442 88.1663ZM49.6482 88.8972H45.6159C45.6159 88.5585 45.6708 88.1382 45.846 87.6877C46.0244 87.2289 46.2942 86.8259 46.6205 86.4996L49.4718 89.3508L52.323 92.202C53.2842 91.2409 53.6804 90.0212 53.6804 88.8972H49.6482ZM49.4718 89.3508L46.6205 86.4996C47.2082 85.9119 47.8362 85.6723 48.1966 85.574C48.5577 85.4756 48.8254 85.4698 48.9173 85.4698V89.502V93.5343C49.4095 93.5343 51.0264 93.4987 52.323 92.202L49.4718 89.3508ZM48.9173 89.502V85.4698C49.0228 85.4698 49.0908 85.4777 49.1126 85.4806C49.1357 85.4836 49.1305 85.4841 49.0927 85.4755C49.0124 85.4573 48.8562 85.4145 48.6102 85.3266L47.254 89.124L45.8978 92.9213C46.7318 93.2192 47.811 93.5343 48.9173 93.5343V89.502ZM47.254 89.124L48.6394 85.3372C48.1054 85.1418 47.4481 84.862 46.6574 84.4818L44.9103 88.1159L43.1631 91.75C44.1198 92.2099 45.025 92.6021 45.8686 92.9108L47.254 89.124ZM44.9103 88.1159L46.6574 84.4818C45.8424 84.09 44.9522 83.6373 43.9852 83.1216L42.0877 86.6794L40.1902 90.2373C41.2394 90.7969 42.2309 91.3018 43.1631 91.75L44.9103 88.1159ZM42.0877 86.6794L43.9852 83.1216C42.9997 82.596 42.0051 82.0535 41.0014 81.494L39.0383 85.0161L37.0752 88.5382C38.1212 89.1213 39.1595 89.6876 40.1902 90.2373L42.0877 86.6794ZM39.0383 85.0161L41.0014 81.494C39.9701 80.9192 38.947 80.3527 37.9321 79.7945L35.9889 83.3276L34.0457 86.8608C35.047 87.4115 36.0568 87.9706 37.0752 88.5382L39.0383 85.0161ZM35.9889 83.3276L37.9321 79.7945C36.9004 79.2271 35.9309 78.7076 35.0245 78.2369L33.1663 81.8155L31.3082 85.3941C32.149 85.8307 33.0613 86.3193 34.0457 86.8608L35.9889 83.3276ZM33.1663 81.8155L35.0063 78.2276C34.3393 77.8855 33.6802 77.5516 33.0291 77.2261L31.2258 80.8327L29.4225 84.4392C30.0483 84.7521 30.6829 85.0735 31.3263 85.4035L33.1663 81.8155ZM31.2258 80.8327L33.0291 77.2261C32.4029 76.913 31.8389 76.6269 31.3363 76.3675L29.4869 79.9506L27.6375 83.5338C28.1765 83.8119 28.7718 84.1139 29.4225 84.4392L31.2258 80.8327ZM29.4869 79.9506L31.4748 76.4425C31.0006 76.1737 30.6497 75.9649 30.4052 75.8105L28.252 79.2198L26.0988 82.629C26.4928 82.8778 26.9651 83.1562 27.4989 83.4588L29.4869 79.9506ZM28.252 79.2198L30.6129 75.9509C30.5647 75.9161 30.7103 76.0118 30.9089 76.2325C31.0119 76.3469 31.2067 76.5798 31.3904 76.9267C31.5699 77.2658 31.8306 77.8879 31.8306 78.7157H27.7984H23.7661C23.7661 80.354 24.7085 81.3983 24.9146 81.6274C25.2645 82.0161 25.6369 82.305 25.8912 82.4886L28.252 79.2198ZM27.7984 78.7157H31.8306C31.8306 79.7738 31.3958 80.5033 31.1741 80.8137C30.9438 81.1362 30.7325 81.3055 30.6953 81.3352L28.1764 78.1865L25.6575 75.0378C25.3683 75.2691 24.968 75.6275 24.6117 76.1263C24.264 76.6131 23.7661 77.5065 23.7661 78.7157H27.7984ZM28.1764 78.1865L30.7191 81.316C30.7122 81.3216 30.7809 81.267 30.9738 81.1383C31.1542 81.0181 31.3973 80.8635 31.7121 80.6716L29.6129 77.2288L27.5137 73.7861C26.8188 74.2098 26.1333 74.6511 25.6337 75.057L28.1764 78.1865ZM29.6129 77.2288L31.6135 80.7298C31.9987 80.5097 32.5531 80.1839 33.263 79.7613L31.2006 76.2964L29.1382 72.8315C28.4368 73.2489 27.9328 73.5447 27.6123 73.7279L29.6129 77.2288ZM31.2006 76.2964L33.263 79.7613C33.9616 79.3454 34.7367 78.887 35.5888 78.3858L33.5444 74.9103L31.4999 71.4347C30.6383 71.9416 29.8509 72.4072 29.1382 72.8315L31.2006 76.2964ZM33.5444 74.9103L35.6388 78.3559C36.4821 77.8433 37.3512 77.3218 38.2462 76.7915L36.1905 73.3226L34.1349 69.8537C33.2153 70.3986 32.3203 70.9356 31.4499 71.4646L33.5444 74.9103ZM36.1905 73.3226L38.2651 76.7802C39.2191 76.2078 40.0965 75.6641 40.895 75.1495L38.7107 71.7601L36.5264 68.3707C35.8128 68.8306 35.01 69.3285 34.1159 69.8649L36.1905 73.3226ZM38.7107 71.7601L40.8478 75.1794C42.3796 74.222 43.7215 73.3292 44.8595 72.5032L42.4909 69.2399L40.1224 65.9766C39.177 66.6628 37.9987 67.45 36.5736 68.3407L38.7107 71.7601ZM42.4909 69.2399L44.8595 72.5032C45.9062 71.7435 46.7892 71.0983 47.5065 70.5688L45.1119 67.3246L42.7173 64.0803C42.0233 64.5926 41.159 65.2243 40.1224 65.9766L42.4909 69.2399ZM45.1119 67.3246L47.5192 70.5594C48.1951 70.0564 48.6776 69.7285 48.9939 69.5364L46.9012 66.0897L44.8086 62.643C44.184 63.0222 43.4735 63.5175 42.7046 64.0898L45.1119 67.3246ZM46.9012 66.0897L48.9939 69.5364C49.046 69.5048 49.0071 69.5353 48.8844 69.5779C48.7612 69.6206 48.5011 69.6935 48.1361 69.6935V65.6613V61.629C46.7415 61.629 45.5865 62.1707 44.8086 62.643L46.9012 66.0897ZM92.1835 47.1381L88.5769 45.3348L88.5644 45.3599L88.5522 45.3851L92.1835 47.1381ZM91.2258 48.877L87.7682 46.8024L87.7489 46.8346L87.7302 46.8671L91.2258 48.877ZM89.8901 51.0444L86.5127 48.8417L86.4957 48.8677L86.4791 48.8939L89.8901 51.0444ZM88.378 53.3377L85.0574 51.0502L85.04 51.0755L85.023 51.101L88.378 53.3377ZM86.8911 55.505L83.5991 53.1766L83.5934 53.1846L83.5878 53.1927L86.8911 55.505ZM85.6814 57.244L88.9848 59.5563L88.9929 59.5448L89.0009 59.5332L85.6814 57.244ZM83.5393 60.2681L86.8205 62.6118L83.5393 60.2681ZM77.6673 68.4083L74.4111 66.0301L77.6673 68.4083ZM74.3911 72.8942L71.1348 70.516L71.1261 70.528L71.1174 70.54L74.3911 72.8942ZM71.2157 77.254L67.9715 74.8595L67.9622 74.872L67.953 74.8847L71.2157 77.254ZM68.3679 81.1603L71.6048 83.5648L71.613 83.5538L71.621 83.5428L68.3679 81.1603ZM64.5877 86.3518L61.3065 84.0081L61.2925 84.0277L61.2788 84.0474L64.5877 86.3518ZM62.6472 89.0484L59.4138 86.6392L59.4059 86.6498L62.6472 89.0484ZM61.0091 91.3669L64.3192 93.6696L64.342 93.6368L64.3641 93.6036L61.0091 91.3669ZM58.1361 93.8115L55.5547 96.9092L55.6701 97.0053L55.7924 97.0927L58.1361 93.8115ZM58.7409 91.3921L55.2774 89.3274L55.2627 89.3521L55.2482 89.3771L58.7409 91.3921ZM60.8075 88.2671L57.5235 85.9273L57.517 85.9364L60.8075 88.2671ZM63.9073 83.9325L60.6356 81.5755L60.6309 81.582L63.9073 83.9325ZM67.4103 78.9173L64.0935 76.6243L64.0841 76.6379L64.0747 76.6517L67.4103 78.9173ZM70.5605 74.4567L73.8347 76.81L73.8405 76.802L73.8462 76.7939L70.5605 74.4567ZM74.1895 69.4163L77.4492 71.7899L77.4546 71.7824L77.46 71.7749L74.1895 69.4163ZM78.0202 64.124L74.7618 61.7487L74.7578 61.7542L78.0202 64.124ZM88.4284 49.8095L85.1712 47.4326L85.1531 47.4574L85.1354 47.4824L88.4284 49.8095ZM89.6633 48.0958L92.9516 50.4294L92.969 50.4049L92.9861 50.3802L89.6633 48.0958ZM90.6714 46.7349L93.7922 49.2883L93.8198 49.2544L93.8468 49.22L90.6714 46.7349ZM91.4778 45.8528L94.102 48.9143L94.1103 48.9072L94.1187 48.9L91.4778 45.8528ZM92.1331 45.5252V49.5575C91.4023 49.5575 90.2071 49.29 89.3203 48.1946C88.5654 47.2621 88.5292 46.3173 88.5292 46.0544H92.5615H96.5937C96.5937 45.4388 96.4861 44.2293 95.5884 43.1204C94.5588 41.8486 93.1494 41.4929 92.1331 41.4929V45.5252ZM92.5615 46.0544H88.5292C88.5292 45.7396 88.5724 45.5047 88.5976 45.3885C88.6249 45.2632 88.6519 45.1834 88.6597 45.161C88.6731 45.1228 88.6583 45.172 88.5769 45.3348L92.1835 47.1381L95.79 48.9414C95.9606 48.6001 96.1349 48.2168 96.2742 47.8173C96.3918 47.4802 96.5937 46.8335 96.5937 46.0544H92.5615ZM92.1835 47.1381L88.5522 45.3851C88.3876 45.726 88.1338 46.193 87.7682 46.8024L91.2258 48.877L94.6834 50.9516C95.1243 50.2169 95.5089 49.5247 95.8147 48.8911L92.1835 47.1381ZM91.2258 48.877L87.7302 46.8671C87.3876 47.4629 86.983 48.1205 86.5127 48.8417L89.8901 51.0444L93.2676 53.247C93.8053 52.4225 94.2912 51.6352 94.7214 50.887L91.2258 48.877ZM89.8901 51.0444L86.4791 48.8939C86.0212 49.6203 85.5474 50.339 85.0574 51.0502L88.378 53.3377L91.6986 55.6252C92.2504 54.8243 92.7845 54.0142 93.3011 53.1948L89.8901 51.0444ZM88.378 53.3377L85.023 51.101C84.538 51.8285 84.0634 52.5202 83.5991 53.1766L86.8911 55.505L90.1831 57.8335C90.6934 57.1122 91.21 56.359 91.7331 55.5744L88.378 53.3377ZM86.8911 55.505L83.5878 53.1927C83.1138 53.8697 82.705 54.4575 82.362 54.9547L85.6814 57.244L89.0009 59.5332C89.33 59.056 89.7275 58.4844 90.1945 57.8174L86.8911 55.505ZM85.6814 57.244L82.3781 54.9316C81.7997 55.7579 81.0935 56.7549 80.2581 57.9244L83.5393 60.2681L86.8205 62.6118C87.6652 61.4292 88.3871 60.4101 88.9848 59.5563L85.6814 57.244ZM83.5393 60.2681L80.2581 57.9244C79.4212 59.0962 78.5083 60.3692 77.5193 61.7438L80.7923 64.0988L84.0654 66.4538C85.0589 65.073 85.9773 63.7923 86.8205 62.6118L83.5393 60.2681ZM80.7923 64.0988L77.5193 61.7438C76.534 63.1131 75.498 64.5418 74.4111 66.0301L77.6673 68.4083L80.9236 70.7864C82.0208 69.2841 83.0681 67.8399 84.0654 66.4538L80.7923 64.0988ZM77.6673 68.4083L74.4111 66.0301C74.3067 66.173 74.4131 66.0273 74.3087 66.1703C74.2043 66.3132 74.3107 66.1675 74.2063 66.3105C74.1019 66.4534 74.2083 66.3077 74.1039 66.4506C73.9995 66.5936 74.1059 66.4479 74.0015 66.5908C73.8971 66.7338 74.0035 66.5881 73.8991 66.731C73.7948 66.8739 73.9012 66.7282 73.7968 66.8712C73.6924 67.0141 73.7988 66.8684 73.6944 67.0114C73.59 67.1543 73.6964 67.0086 73.592 67.1516C73.4098 67.401 73.3647 67.4628 73.1825 67.7123C73.0003 67.9618 72.9552 68.0235 72.773 68.273C72.4085 68.772 72.3183 68.8955 71.9539 69.3945C71.5895 69.8935 71.4993 70.017 71.1348 70.516L74.3911 72.8942L77.6474 75.2723C77.7518 75.1294 77.6454 75.2751 77.7498 75.1322C77.8542 74.9892 77.7478 75.1349 77.8522 74.992C77.9566 74.849 77.8502 74.9947 77.9546 74.8518C78.0589 74.7088 77.9525 74.8545 78.0569 74.7116C78.1613 74.5687 78.0549 74.7144 78.1593 74.5714C78.2637 74.4285 78.1573 74.5742 78.2617 74.4312C78.3661 74.2883 78.2597 74.434 78.3641 74.291C78.4685 74.1481 78.3621 74.2938 78.4665 74.1509C78.5709 74.0079 78.4644 74.1536 78.5688 74.0107C78.6732 73.8677 78.5668 74.0134 78.6712 73.8705C78.7756 73.7276 78.6692 73.8733 78.7736 73.7303C78.878 73.5874 78.7716 73.7331 78.876 73.5901C78.9804 73.4472 78.874 73.5929 78.9784 73.4499C79.0828 73.307 78.9764 73.4527 79.0807 73.3098C79.1851 73.1668 79.0787 73.3125 79.1831 73.1696C79.2875 73.0266 79.1811 73.1723 79.2855 73.0294C79.6499 72.5304 79.7401 72.4069 80.1046 71.9079C80.469 71.4089 80.5592 71.2854 80.9236 70.7864L77.6673 68.4083ZM74.3911 72.8942L71.1174 70.54C70.0514 72.0224 69.0028 73.4622 67.9715 74.8595L71.2157 77.254L74.46 79.6486C75.512 78.2232 76.5803 76.7564 77.6648 75.2483L74.3911 72.8942ZM71.2157 77.254L67.953 74.8847C66.9308 76.2923 65.9848 77.5899 65.1149 78.7777L68.3679 81.1603L71.621 83.5428C72.4984 82.3449 73.4509 81.0383 74.4784 79.6234L71.2157 77.254ZM68.3679 81.1603L65.1311 78.7558C64.2497 79.9422 63.4742 80.9989 62.8057 81.9244L66.0746 84.2853L69.3435 86.6461C69.9855 85.7572 70.7388 84.7305 71.6048 83.5648L68.3679 81.1603ZM66.0746 84.2853L62.8057 81.9244C62.1494 82.8332 61.6488 83.5289 61.3065 84.0081L64.5877 86.3518L67.8689 88.6955C68.1986 88.2339 68.6893 87.5519 69.3435 86.6461L66.0746 84.2853ZM64.5877 86.3518L61.2788 84.0474C60.6464 84.9555 60.0247 85.8192 59.4138 86.6392L62.6472 89.0484L65.8806 91.4576C66.5465 90.5638 67.2185 89.6299 67.8966 88.6562L64.5877 86.3518ZM62.6472 89.0484L59.4059 86.6498C58.7536 87.5313 58.1683 88.3589 57.654 89.1302L61.0091 91.3669L64.3641 93.6036C64.7907 92.9637 65.2975 92.2456 65.8885 91.4469L62.6472 89.0484ZM61.0091 91.3669L57.699 89.0643C57.1935 89.7909 56.7993 90.3168 56.5071 90.6724L59.623 93.2319L62.7388 95.7913C63.2195 95.2061 63.7494 94.4887 64.3192 93.6696L61.0091 91.3669ZM59.623 93.2319L56.5071 90.6724C56.4767 90.7095 56.5875 90.5608 56.862 90.3821C57.1526 90.1928 57.7327 89.9052 58.5393 89.9052V93.9375V97.9698C60.7705 97.9698 62.1702 96.4835 62.7388 95.7913L59.623 93.2319ZM58.5393 93.9375V89.9052C59.1872 89.9052 59.8806 90.1023 60.4798 90.5303L58.1361 93.8115L55.7924 97.0927C56.6267 97.6887 57.589 97.9698 58.5393 97.9698V93.9375ZM58.1361 93.8115L60.7175 90.7138C61.4032 91.2853 61.7241 91.9595 61.8678 92.4145C62.0056 92.8509 62.0171 93.1915 62.0171 93.3327H57.9849H53.9526C53.9526 93.8718 54.0185 95.629 55.5547 96.9092L58.1361 93.8115ZM57.9849 93.3327H62.0171C62.0171 93.48 62.0062 93.6018 61.9942 93.6928C61.9821 93.7842 61.9675 93.855 61.9564 93.9021C61.9352 93.9919 61.9191 94.0269 61.9311 93.9963C61.9418 93.9688 61.9686 93.9048 62.0207 93.8001C62.0721 93.6968 62.1417 93.5665 62.2336 93.4071L58.7409 91.3921L55.2482 89.3771C54.9356 89.9191 54.6418 90.4911 54.4167 91.0687C54.2119 91.5943 53.9526 92.4002 53.9526 93.3327H57.9849ZM58.7409 91.3921L62.2044 93.4569C62.6528 92.7049 63.2773 91.7564 64.0979 90.5979L60.8075 88.2671L57.517 85.9364C56.6239 87.1973 55.8708 88.3321 55.2774 89.3274L58.7409 91.3921ZM60.8075 88.2671L64.0914 90.607C65.0462 89.2669 66.0769 87.8256 67.1836 86.2829L63.9073 83.9325L60.6309 81.582C59.5199 83.1307 58.484 84.5792 57.5235 85.9273L60.8075 88.2671ZM63.9073 83.9325L67.1789 86.2895C68.3286 84.6935 69.5177 82.9911 70.7458 81.183L67.4103 78.9173L64.0747 76.6517C62.8835 78.4054 61.7372 80.0464 60.6356 81.5755L63.9073 83.9325ZM67.4103 78.9173L70.727 81.2104C71.6515 79.8733 72.6871 78.4068 73.8347 76.81L70.5605 74.4567L67.2862 72.1033C66.1153 73.7323 65.0508 75.2396 64.0935 76.6243L67.4103 78.9173ZM70.5605 74.4567L73.8462 76.7939C74.9963 75.1772 76.1973 73.5092 77.4492 71.7899L74.1895 69.4163L70.9298 67.0428C69.6616 68.7845 68.4432 70.4767 67.2747 72.1194L70.5605 74.4567ZM74.1895 69.4163L77.46 71.7749C78.7173 70.0314 79.9915 68.2711 81.2825 66.4938L78.0202 64.124L74.7578 61.7542C73.4614 63.5387 72.1818 65.3066 70.919 67.0578L74.1895 69.4163ZM78.0202 64.124L81.2786 66.4993C82.5872 64.704 83.8622 62.9593 85.1035 61.2652L81.8508 58.8821L78.5981 56.4989C77.3528 58.1986 76.074 59.9485 74.7618 61.7487L78.0202 64.124ZM81.8508 58.8821L85.1035 61.2652C86.3488 59.5655 87.5356 57.941 88.6637 56.3919L85.4042 54.0181L82.1447 51.6444C81.0215 53.1867 79.8394 54.8048 78.5981 56.4989L81.8508 58.8821ZM85.4042 54.0181L88.6637 56.3919C89.7981 54.8342 90.8177 53.4154 91.7214 52.1365L88.4284 49.8095L85.1354 47.4824C84.2583 48.7237 83.2617 50.1107 82.1447 51.6444L85.4042 54.0181ZM88.4284 49.8095L91.6856 52.1864C92.1477 51.5532 92.5699 50.9673 92.9516 50.4294L89.6633 48.0958L86.375 45.7621C86.0174 46.2659 85.6164 46.8225 85.1712 47.4326L88.4284 49.8095ZM89.6633 48.0958L92.9861 50.3802C93.3133 49.9041 93.5811 49.5462 93.7922 49.2883L90.6714 46.7349L87.5506 44.1815C87.1568 44.6628 86.7525 45.2122 86.3406 45.8114L89.6633 48.0958ZM90.6714 46.7349L93.8468 49.22C93.9484 49.0901 94.0245 49.0014 94.0757 48.9454C94.1293 48.8868 94.1376 48.8838 94.102 48.9143L91.4778 45.8528L88.8537 42.7913C88.3344 43.2364 87.8794 43.7598 87.4959 44.2498L90.6714 46.7349ZM91.4778 45.8528L94.1187 48.9C94.0758 48.9371 93.9132 49.074 93.6339 49.2137C93.3558 49.3528 92.8346 49.5575 92.1331 49.5575V45.5252V41.4929C90.4549 41.4929 89.2947 42.409 88.837 42.8057L91.4778 45.8528ZM101.906 65.1321L100.269 68.8168L100.389 68.8702L100.512 68.9157L101.906 65.1321ZM102.94 65.6109L101.009 69.1508L101.103 69.2022L101.2 69.2485L102.94 65.6109ZM104.124 66.2409L102.092 69.7239L102.177 69.7732L102.264 69.8184L104.124 66.2409ZM105.283 66.8962L103.161 70.3247L103.221 70.362L103.283 70.3972L105.283 66.8962ZM106.77 67.7782L108.802 64.2952L108.69 64.2298L108.573 64.1717L106.77 67.7782ZM109.946 69.6935L107.843 73.1342L107.864 73.1469L107.885 73.1594L109.946 69.6935ZM111.836 70.8528L109.682 74.2621L109.715 74.2825L109.748 74.3024L111.836 70.8528ZM116.574 73.6754L118.586 70.181L118.551 70.1613L118.517 70.1423L116.574 73.6754ZM119.371 75.3135L117.296 78.7711L117.325 78.7883L117.354 78.8049L119.371 75.3135ZM122.042 78.8165L125.094 81.4521L125.123 81.4187L125.151 81.3846L122.042 78.8165ZM120.833 80.001L118.2 76.9469L118.173 76.9698L118.147 76.9932L120.833 80.001ZM117.657 82.4456L119.894 85.8006L119.969 85.7506L120.042 85.6972L117.657 82.4456ZM116.826 83.0252L119.128 86.3353L119.142 86.3255L119.156 86.3156L116.826 83.0252ZM115.465 83.9829L117.726 87.3212L117.763 87.2966L117.798 87.2712L115.465 83.9829ZM113.751 85.1421L115.988 88.4972L115.998 88.4902L116.008 88.4832L113.751 85.1421ZM108.988 88.3679L111.183 91.7501L111.204 91.7367L111.225 91.723L108.988 88.3679ZM106.493 89.9556L108.555 93.4205L108.586 93.4026L108.615 93.3841L106.493 89.9556ZM104.653 89.5272L101.427 87.1079L101.41 87.1316L101.392 87.1556L104.653 89.5272ZM105.535 88.6956L108.069 91.8324L108.153 91.7648L108.233 91.6927L105.535 88.6956ZM106.417 87.9899L104.038 84.7343L104.008 84.7567L103.977 84.7796L106.417 87.9899ZM107.904 86.9315L110.21 90.2395L110.22 90.2326L110.23 90.2257L107.904 86.9315ZM111.483 84.3861L113.742 87.7259L113.753 87.7188L113.763 87.7116L111.483 84.3861ZM114.053 82.5968L116.349 85.9121L116.362 85.9026L116.376 85.8931L114.053 82.5968ZM116.095 81.1099L118.528 84.3252L118.535 84.3203L118.541 84.3153L116.095 81.1099ZM118.791 78.7409L115.855 75.9774L115.811 76.0245L115.768 76.0731L118.791 78.7409ZM118.287 77.2288L115.903 80.4805L115.952 80.5168L116.003 80.5516L118.287 77.2288ZM116.624 76.1452L118.861 72.7901L118.819 72.7625L118.777 72.7359L116.624 76.1452ZM115.314 75.3387L113.101 78.7099L113.162 78.7496L113.224 78.7871L115.314 75.3387ZM113.499 74.1794L111.323 77.5741L111.342 77.5866L111.362 77.5988L113.499 74.1794ZM111.432 72.869L113.577 69.4541L111.432 72.869ZM109.366 71.5837L107.15 74.9523L107.201 74.9858L107.253 75.0178L109.366 71.5837ZM107.602 70.4496L105.34 73.788L105.402 73.8296L105.465 73.8689L107.602 70.4496ZM106.417 69.6431L108.702 66.3204L108.693 66.3146L108.685 66.3088L106.417 69.6431ZM104.83 68.6099L102.572 71.951L102.624 71.9858L102.676 72.0191L104.83 68.6099ZM102.99 67.3498L100.585 70.5867L100.637 70.6251L100.69 70.6618L102.99 67.3498ZM101.453 66.1401L98.7226 69.1076L98.7841 69.1642L98.848 69.2183L101.453 66.1401ZM100.923 65.0313L103.343 68.2571L103.393 68.2193L103.442 68.1799L100.923 65.0313ZM101.201 64.9304V68.9627C100.782 68.9627 100.49 68.8849 100.395 68.858C100.282 68.8255 100.234 68.8013 100.269 68.8168L101.906 65.1321L103.544 61.4473C103.13 61.2633 102.251 60.8982 101.201 60.8982V64.9304ZM101.906 65.1321L100.512 68.9157C100.61 68.9515 100.773 69.0223 101.009 69.1508L102.94 65.6109L104.87 62.071C104.367 61.7963 103.841 61.5478 103.3 61.3484L101.906 65.1321ZM102.94 65.6109L101.2 69.2485C101.478 69.3818 101.776 69.5393 102.092 69.7239L104.124 66.2409L106.156 62.7579C105.666 62.4721 105.173 62.2096 104.679 61.9732L102.94 65.6109ZM104.124 66.2409L102.264 69.8184C102.607 69.9968 102.904 70.1659 103.161 70.3247L105.283 66.8962L107.406 63.4677C106.956 63.1896 106.481 62.9219 105.984 62.6634L104.124 66.2409ZM105.283 66.8962L103.283 70.3972C103.602 70.5794 103.865 70.7366 104.079 70.87L106.216 67.4506L108.353 64.0313C108.029 63.8286 107.671 63.6162 107.284 63.3952L105.283 66.8962ZM106.216 67.4506L104.079 70.87C104.328 71.0259 104.669 71.2359 104.967 71.3848L106.77 67.7782L108.573 64.1717C108.6 64.1849 108.619 64.195 108.629 64.2004C108.64 64.206 108.646 64.2093 108.646 64.2095C108.646 64.2097 108.643 64.208 108.636 64.204C108.629 64.2001 108.62 64.1945 108.607 64.187C108.554 64.1554 108.471 64.105 108.353 64.0313L106.216 67.4506ZM106.77 67.7782L104.738 71.2612C105.116 71.4816 105.575 71.755 106.117 72.0835L108.207 68.6351L110.297 65.1867C109.73 64.8431 109.23 64.5452 108.802 64.2952L106.77 67.7782ZM108.207 68.6351L106.117 72.0835C106.667 72.4167 107.242 72.7669 107.843 73.1342L109.946 69.6935L112.048 66.2529C111.44 65.8809 110.856 65.5255 110.297 65.1867L108.207 68.6351ZM109.946 69.6935L107.885 73.1594C108.474 73.5098 109.073 73.8773 109.682 74.2621L111.836 70.8528L113.989 67.4436C113.321 67.0219 112.66 66.6166 112.006 66.2277L109.946 69.6935ZM111.836 70.8528L109.748 74.3024C110.39 74.6913 111.008 75.0636 111.601 75.4193L113.675 71.9617L115.75 68.5041C115.167 68.1541 114.558 67.7872 113.924 67.4032L111.836 70.8528ZM113.675 71.9617L111.601 75.4193C111.747 75.5073 111.674 75.4632 111.819 75.5505C111.82 75.5511 111.822 75.5518 111.823 75.5525C111.824 75.5532 111.825 75.5538 111.826 75.5545C111.853 75.5708 111.806 75.5423 111.833 75.5586C111.911 75.6054 111.768 75.5198 111.846 75.5667C111.864 75.5775 111.835 75.5599 111.853 75.5707C111.871 75.5815 111.842 75.564 111.86 75.5748C111.974 75.6431 111.76 75.5145 111.873 75.5829C112.16 75.7545 111.641 75.4435 111.927 75.6151C111.939 75.6223 111.942 75.6241 111.954 75.6312C112.085 75.7096 111.85 75.5689 111.981 75.6472C112.04 75.6828 111.935 75.6197 111.994 75.6553C112.024 75.673 111.978 75.6455 112.007 75.6633C112.008 75.6639 112.01 75.6646 112.011 75.6652C112.012 75.6659 112.013 75.6666 112.014 75.6672C112.038 75.6814 111.997 75.657 112.021 75.6712C112.062 75.6961 111.993 75.6544 112.034 75.6792C112.317 75.8488 111.858 75.5733 112.14 75.7427C112.198 75.7778 112.108 75.7235 112.166 75.7585C112.175 75.7641 112.17 75.7608 112.179 75.7664C112.18 75.767 112.185 75.7697 112.186 75.7703C112.199 75.7782 112.179 75.7664 112.192 75.7742C112.239 75.8021 112.198 75.7778 112.245 75.8056C112.28 75.8267 112.418 75.9094 112.451 75.9297C112.456 75.9322 112.473 75.9424 112.477 75.945C112.484 75.9493 112.483 75.9484 112.49 75.9527C112.498 75.9578 112.494 75.9552 112.502 75.9603C112.615 76.0279 112.441 75.9232 112.553 75.9908C112.555 75.9921 112.564 75.9971 112.566 75.9984C112.567 75.999 112.571 76.0016 112.572 76.0022C112.573 76.0028 112.574 76.0035 112.575 76.0041C112.576 76.0047 112.578 76.0054 112.579 76.006C112.595 76.0161 112.587 76.011 112.604 76.0211C112.608 76.0237 112.625 76.0337 112.629 76.0363C112.63 76.0369 112.631 76.0375 112.632 76.0381C112.633 76.0388 112.634 76.0394 112.635 76.04C112.636 76.0407 112.637 76.0413 112.638 76.0419C112.64 76.0425 112.641 76.0432 112.642 76.0438C112.645 76.0459 112.644 76.0455 112.648 76.0476C112.649 76.0482 112.65 76.0488 112.651 76.0495C112.652 76.0501 112.653 76.0507 112.654 76.0513C112.765 76.1178 112.644 76.0451 112.754 76.1113C112.771 76.1213 112.837 76.1608 112.853 76.1706C112.861 76.1756 112.894 76.1952 112.902 76.2001C113.022 76.2719 112.831 76.1576 112.951 76.2294C112.973 76.2425 113.026 76.2747 113.048 76.2876C113.064 76.2973 113.128 76.3357 113.144 76.3452C113.165 76.3579 113.147 76.3468 113.168 76.3595C113.181 76.3674 113.166 76.3587 113.18 76.3666C113.182 76.3678 113.19 76.3726 113.192 76.3738C113.193 76.3744 113.194 76.375 113.195 76.3755C113.196 76.3761 113.196 76.3767 113.197 76.3773C113.198 76.3779 113.199 76.3785 113.2 76.3791C113.201 76.3797 113.202 76.3803 113.203 76.3809C113.232 76.3983 113.186 76.3706 113.215 76.388C113.273 76.4227 113.181 76.3675 113.239 76.4022L115.314 72.9446L117.388 69.4869C116.713 69.0816 116.51 68.9598 115.75 68.5041L113.675 71.9617ZM115.314 72.9446L113.239 76.4022C113.766 76.7185 114.233 76.9902 114.63 77.2085L116.574 73.6754L118.517 70.1423C118.242 69.991 117.869 69.7754 117.388 69.4869L115.314 72.9446ZM116.574 73.6754L114.562 77.1698C115.658 77.8011 116.568 78.3341 117.296 78.7711L119.371 75.3135L121.446 71.8559C120.662 71.3856 119.707 70.8266 118.586 70.181L116.574 73.6754ZM119.371 75.3135L117.354 78.8049C118.065 79.2159 118.587 79.5402 118.947 79.7842L121.211 76.4476L123.475 73.111C122.894 72.7166 122.189 72.2848 121.388 71.8221L119.371 75.3135ZM121.211 76.4476L118.947 79.7842C119.12 79.9021 119.232 79.9858 119.297 80.0373C119.327 80.062 119.339 80.0723 119.335 80.0686C119.332 80.0659 119.302 80.0391 119.256 79.989L122.219 77.254L125.182 74.519C124.659 73.9532 124.014 73.4767 123.475 73.111L121.211 76.4476ZM122.219 77.254L119.256 79.989C119.196 79.9245 119.032 79.7379 118.871 79.4279C118.707 79.1143 118.489 78.5633 118.489 77.8337H122.521H126.553C126.553 76.115 125.59 74.9609 125.182 74.519L122.219 77.254ZM122.521 77.8337H118.489C118.489 77.1786 118.679 76.7157 118.777 76.515C118.878 76.3076 118.96 76.2165 118.934 76.2485L122.042 78.8165L125.151 81.3846C125.616 80.8223 126.553 79.5636 126.553 77.8337H122.521ZM122.042 78.8165L118.991 76.181C118.834 76.3627 118.581 76.6181 118.2 76.9469L120.833 80.001L123.465 83.0551C124.058 82.5439 124.613 82.0096 125.094 81.4521L122.042 78.8165ZM120.833 80.001L118.147 76.9932C117.783 77.3187 117.362 77.6589 116.881 78.0125L119.27 81.2611L121.659 84.5097C122.32 84.0232 122.942 83.5234 123.518 83.0088L120.833 80.001ZM119.27 81.2611L116.881 78.0125C116.311 78.4316 115.775 78.8254 115.273 79.1939L117.657 82.4456L120.042 85.6972C120.547 85.3264 121.086 84.9306 121.659 84.5097L119.27 81.2611ZM117.657 82.4456L115.421 79.0905C115.215 79.2274 114.894 79.4522 114.495 79.7348L116.826 83.0252L119.156 86.3156C119.564 86.027 119.797 85.8653 119.894 85.8006L117.657 82.4456ZM116.826 83.0252L114.523 79.7151C114.123 79.9931 113.659 80.32 113.131 80.6945L115.465 83.9829L117.798 87.2712C118.312 86.9065 118.755 86.5949 119.128 86.3353L116.826 83.0252ZM115.465 83.9829L113.203 80.6445C112.684 80.9963 112.114 81.3818 111.494 81.8011L113.751 85.1421L116.008 88.4832C116.631 88.0625 117.204 87.6751 117.726 87.3212L115.465 83.9829ZM113.751 85.1421L111.514 81.7871C110.895 82.1999 110.284 82.6129 109.681 83.0263L111.962 86.3518L114.242 89.6773C114.815 89.2842 115.397 88.8908 115.988 88.4972L113.751 85.1421ZM111.962 86.3518L109.681 83.0263C109.099 83.4258 108.551 83.7995 108.037 84.1475L110.298 87.4859L112.56 90.8243C113.088 90.4667 113.649 90.0843 114.242 89.6773L111.962 86.3518ZM110.298 87.4859L108.037 84.1475C107.521 84.4971 107.093 84.7852 106.751 85.0129L108.988 88.3679L111.225 91.723C111.589 91.4803 112.034 91.1803 112.56 90.8243L110.298 87.4859ZM108.988 88.3679L106.792 84.9858C105.851 85.5971 105.045 86.1099 104.371 86.5272L106.493 89.9556L108.615 93.3841C109.353 92.9277 110.21 92.3821 111.183 91.7501L108.988 88.3679ZM106.493 89.9556L104.431 86.4908C104.31 86.5625 104.216 86.6141 104.147 86.6498C104.077 86.6862 104.046 86.6988 104.05 86.6971C104.051 86.697 104.119 86.6683 104.244 86.6368C104.36 86.6075 104.611 86.5534 104.956 86.5534V90.5857V94.6179C105.89 94.6179 106.671 94.3386 107.109 94.1592C107.614 93.9522 108.105 93.6887 108.555 93.4205L106.493 89.9556ZM104.956 90.5857V86.5534C105.409 86.5534 106.49 86.6695 107.429 87.6084C108.368 88.5473 108.484 89.6281 108.484 90.0817H104.452H100.419C100.419 90.8712 100.619 92.204 101.726 93.3109C102.833 94.4178 104.166 94.6179 104.956 94.6179V90.5857ZM104.452 90.0817H108.484C108.484 90.933 108.161 91.5599 107.914 91.8989L104.653 89.5272L101.392 87.1556C100.877 87.8641 100.419 88.8606 100.419 90.0817H104.452ZM104.653 89.5272L107.879 91.9466C107.811 92.0372 107.761 92.0922 107.746 92.1076C107.73 92.1254 107.73 92.1241 107.753 92.1019C107.803 92.0551 107.902 91.967 108.069 91.8324L105.535 88.6956L103.002 85.5587C102.543 85.9293 101.903 86.4732 101.427 87.1079L104.653 89.5272ZM105.535 88.6956L108.233 91.6927C108.229 91.6962 108.24 91.686 108.272 91.6595C108.302 91.6339 108.345 91.5992 108.401 91.5544C108.514 91.4641 108.664 91.347 108.857 91.2003L106.417 87.9899L103.977 84.7796C103.554 85.1014 103.142 85.4248 102.838 85.6984L105.535 88.6956ZM106.417 87.9899L108.796 91.2455C109.204 90.9478 109.674 90.6127 110.21 90.2395L107.904 86.9315L105.599 83.6234C105.025 84.023 104.504 84.3936 104.038 84.7343L106.417 87.9899ZM107.904 86.9315L110.23 90.2257C110.82 89.8091 111.433 89.3683 112.07 88.9034L109.694 85.6462L107.317 82.3889C106.71 82.8313 106.131 83.2473 105.579 83.6372L107.904 86.9315ZM109.694 85.6462L112.07 88.9034C112.658 88.4748 113.215 88.0827 113.742 87.7259L111.483 84.3861L109.224 81.0462C108.608 81.4624 107.973 81.9103 107.317 82.3889L109.694 85.6462ZM111.483 84.3861L113.763 87.7116C114.361 87.3016 114.896 86.9308 115.366 86.6L113.045 83.3024L110.725 80.0048C110.288 80.3125 109.781 80.6641 109.203 81.0606L111.483 84.3861ZM113.045 83.3024L115.366 86.6C115.818 86.2818 116.144 86.054 116.349 85.9121L114.053 82.5968L111.758 79.2815C111.526 79.442 111.18 79.6846 110.725 80.0048L113.045 83.3024ZM114.053 82.5968L116.376 85.8931C117.147 85.3499 117.865 84.8272 118.528 84.3252L116.095 81.1099L113.662 77.8945C113.082 78.3334 112.439 78.8019 111.731 79.3005L114.053 82.5968ZM116.095 81.1099L118.541 84.3153C119.236 83.7853 119.864 83.2753 120.412 82.7879L117.733 79.7742L115.054 76.7604C114.695 77.0796 114.231 77.46 113.648 77.9044L116.095 81.1099ZM117.733 79.7742L120.412 82.7879C120.925 82.3318 121.411 81.8662 121.815 81.4088L118.791 78.7409L115.768 76.0731C115.667 76.1869 115.448 76.4101 115.054 76.7604L117.733 79.7742ZM118.791 78.7409L121.728 81.5045C121.948 81.2704 122.234 80.9421 122.49 80.5428C122.669 80.2624 123.227 79.3644 123.227 78.1109H119.195H115.162C115.162 77.4932 115.311 77.0207 115.413 76.76C115.519 76.4874 115.634 76.2948 115.697 76.1956C115.819 76.0063 115.903 75.9259 115.855 75.9774L118.791 78.7409ZM119.195 78.1109H123.227C123.227 76.9578 122.762 76.1175 122.487 75.7041C122.191 75.2603 121.864 74.9375 121.64 74.7357L118.943 77.7329L116.245 80.73C116.189 80.6794 115.988 80.4952 115.777 80.1775C115.585 79.8901 115.162 79.1632 115.162 78.1109H119.195ZM118.943 77.7329L121.64 74.7357C121.298 74.4282 120.928 74.1509 120.572 73.9061L118.287 77.2288L116.003 80.5516C116.089 80.6105 116.151 80.6563 116.194 80.6895C116.238 80.7234 116.253 80.7368 116.245 80.73L118.943 77.7329ZM118.287 77.2288L120.672 73.9772C120.317 73.7173 119.945 73.4699 119.558 73.2337L117.456 76.6744L115.353 80.115C115.571 80.2485 115.753 80.3707 115.903 80.4805L118.287 77.2288ZM117.456 76.6744L119.558 73.2337C119.294 73.0721 119.062 72.9243 118.861 72.7901L116.624 76.1452L114.387 79.5002C114.69 79.7021 115.013 79.9071 115.353 80.115L117.456 76.6744ZM116.624 76.1452L118.777 72.7359C118.427 72.515 117.966 72.2315 117.403 71.8903L115.314 75.3387L113.224 78.7871C113.769 79.1179 114.182 79.3721 114.471 79.5544L116.624 76.1452ZM115.314 75.3387L117.526 71.9675C116.958 71.5952 116.328 71.1924 115.636 70.7601L113.499 74.1794L111.362 77.5988C112.014 78.0065 112.593 78.3766 113.101 78.7099L115.314 75.3387ZM113.499 74.1794L115.675 70.7848C115.008 70.3573 114.309 69.9138 113.577 69.4541L111.432 72.869L109.288 76.2838C110.001 76.7314 110.679 77.1615 111.323 77.5741L113.499 74.1794ZM111.432 72.869L113.577 69.4541C112.845 68.9947 112.146 68.5598 111.479 68.1496L109.366 71.5837L107.253 75.0178C107.896 75.414 108.575 75.836 109.288 76.2838L111.432 72.869ZM109.366 71.5837L111.582 68.2151C110.923 67.7812 110.308 67.3858 109.739 67.0302L107.602 70.4496L105.465 73.8689C105.971 74.1854 106.532 74.5461 107.15 74.9523L109.366 71.5837ZM107.602 70.4496L109.863 67.1112C109.344 66.7598 108.959 66.4972 108.702 66.3204L106.417 69.6431L104.133 72.9659C104.413 73.1587 104.817 73.4338 105.34 73.788L107.602 70.4496ZM106.417 69.6431L108.685 66.3088C108.214 65.9885 107.643 65.6177 106.983 65.2006L104.83 68.6099L102.676 72.0191C103.293 72.4085 103.781 72.7265 104.15 72.9775L106.417 69.6431ZM104.83 68.6099L107.087 65.2688C106.479 64.8582 105.88 64.4479 105.29 64.0378L102.99 67.3498L100.69 70.6618C101.309 71.0918 101.937 71.5215 102.572 71.951L104.83 68.6099ZM102.99 67.3498L105.394 64.1129C104.857 63.7136 104.414 63.3639 104.057 63.062L101.453 66.1401L98.848 69.2183C99.3648 69.6556 99.9468 70.1123 100.585 70.5867L102.99 67.3498ZM101.453 66.1401L104.183 63.1727C104.074 63.0729 104.14 63.1157 104.261 63.2861C104.326 63.3768 104.454 63.5692 104.575 63.8534C104.692 64.1315 104.855 64.6196 104.855 65.2581H100.823H96.7903C96.7903 66.6381 97.4446 67.6175 97.6989 67.9735C98.0306 68.4379 98.4109 68.8209 98.7226 69.1076L101.453 66.1401ZM100.823 65.2581H104.855C104.855 65.6514 104.789 66.1859 104.533 66.7634C104.265 67.3643 103.851 67.8761 103.343 68.2571L100.923 65.0313L98.504 61.8054C97.213 62.7737 96.7903 64.1734 96.7903 65.2581H100.823ZM100.923 65.0313L103.442 68.1799C102.863 68.6435 102.079 68.9627 101.201 68.9627V64.9304V60.8982C100.12 60.8982 99.1519 61.2846 98.4045 61.8826L100.923 65.0313Z" fill="#2A2D36" mask="url(#path-4-outside-2_119_5)"/>
</g>
<defs>
<clipPath id="clip0_119_5">
<rect width="150" height="150" rx="75" fill="white"/>
</clipPath>
</defs>
</svg>
